<?xml version="1.0" encoding="UTF-8" standalone="no"?>
<svg
   xmlns:dc="http://purl.org/dc/elements/1.1/"
   xmlns:cc="http://creativecommons.org/ns#"
   xmlns:rdf="http://www.w3.org/1999/02/22-rdf-syntax-ns#"
   xmlns:svg="http://www.w3.org/2000/svg"
   xmlns="http://www.w3.org/2000/svg"
   xmlns:sodipodi="http://sodipodi.sourceforge.net/DTD/sodipodi-0.dtd"
   xmlns:inkscape="http://www.inkscape.org/namespaces/inkscape"
   aria-hidden="true"
   focusable="false"
   data-prefix="fas"
   data-icon="hands-helping"
   class="svg-inline--fa fa-hands-helping fa-w-20"
   role="img"
   viewBox="0 0 640 512"
   version="1.1"
   id="svg4"
   sodipodi:docname="hands-helping-solid.svg"
   inkscape:version="1.0.2 (e86c870879, 2021-01-15)">
  <metadata
     id="metadata10">
    <rdf:RDF>
      <cc:Work
         rdf:about="">
        <dc:format>image/svg+xml</dc:format>
        <dc:type
           rdf:resource="http://purl.org/dc/dcmitype/StillImage" />
      </cc:Work>
    </rdf:RDF>
  </metadata>
  <defs
     id="defs8" />
  <sodipodi:namedview
     pagecolor="#ffffff"
     bordercolor="#666666"
     borderopacity="1"
     objecttolerance="10"
     gridtolerance="10"
     guidetolerance="10"
     inkscape:pageopacity="0"
     inkscape:pageshadow="2"
     inkscape:window-width="1920"
     inkscape:window-height="1017"
     id="namedview6"
     showgrid="false"
     inkscape:zoom="1.6601562"
     inkscape:cx="320"
     inkscape:cy="256"
     inkscape:window-x="-8"
     inkscape:window-y="-8"
     inkscape:window-maximized="1"
     inkscape:current-layer="svg4" />
  <path
     fill="currentColor"
     d="M488 192H336v56c0 39.7-32.3 72-72 72s-72-32.3-72-72V126.4l-64.9 39C107.8 176.9 96 197.8 96 220.2v47.3l-80 46.2C.7 322.5-4.6 342.1 4.3 357.4l80 138.6c8.8 15.3 28.4 20.5 43.7 11.7L231.4 448H368c35.3 0 64-28.7 64-64h16c17.7 0 32-14.3 32-32v-64h8c13.3 0 24-10.7 24-24v-48c0-13.3-10.7-24-24-24zm147.7-37.4L555.7 16C546.9.7 527.3-4.5 512 4.3L408.6 64H306.4c-12 0-23.7 3.4-33.9 9.7L239 94.6c-9.4 5.8-15 16.1-15 27.1V248c0 22.1 17.9 40 40 40s40-17.9 40-40v-88h184c30.9 0 56 25.1 56 56v28.5l80-46.2c15.3-8.9 20.5-28.4 11.7-43.7z"
     id="path2" />
  <path
     style="fill:#ffffff;stroke:#f2f2f2;stroke-width:0"
     d="M 102.55059,510.05916 C 100.39718,509.30451 97.28,507.89475 95.623529,506.92639 88.496953,502.76021 88.882423,503.36664 45.211103,427.61612 22.784974,388.71665 3.7374207,355.36321 2.8832063,353.49736 -2.2380555,342.31105 0.5921027,328.22753 9.765988,319.24706 c 3.573291,-3.49796 8.405523,-6.45142 45.334058,-27.70824 l 41.334443,-23.79294 0.23746,-29.21412 c 0.226466,-27.86209 0.298526,-29.42848 1.557052,-33.84624 3.906749,-13.71372 11.155119,-25.10833 21.199259,-33.32576 2.32406,-1.90138 19.46793,-12.61632 38.09748,-23.81097 l 33.87191,-20.35391 0.34098,65.75785 c 0.30531,58.87718 0.44714,66.18797 1.35541,69.86845 7.27528,29.4807 27.75119,49.79171 56.43067,55.9762 7.97153,1.719 20.9414,1.719 28.91294,0 25.91621,-5.58861 45.88061,-23.37809 54.2409,-48.33189 3.25455,-9.71417 3.57751,-14.01969 3.58143,-47.74549 l 0.004,-30.56941 h 76.46918 c 53.65687,0 77.42141,0.19923 79.66117,0.66783 7.26725,1.52046 14.08006,6.91783 17.23884,13.65728 l 1.61434,3.4443 v 30.11765 30.11764 l -1.94217,3.96898 c -4.45307,9.10022 -13.0437,13.80044 -25.22318,13.80044 h -4.41268 l -0.17334,35.38823 c -0.17151,35.01599 -0.18758,35.426 -1.52769,38.97878 -3.45978,9.17233 -10.70371,16.38407 -19.77663,19.68874 -3.0527,1.11191 -5.2331,1.33805 -15.16078,1.57241 l -11.5953,0.27372 v 3.48369 c 0,4.77029 -1.53977,12.48737 -3.6396,18.24103 -7.15723,19.61129 -22.74122,33.96462 -43.46053,40.02851 l -5.60575,1.64062 -73.66671,0.17999 -73.66672,0.17999 -52.79194,30.48878 c -29.03556,16.76884 -54.29872,31.03931 -56.14034,31.71217 -2.33762,0.85408 -5.25765,1.28776 -9.67311,1.43664 -5.38969,0.18173 -6.90353,0.0104 -10.24,-1.15885 z"
     id="path835" />
  <path
     style="fill:#ffffff;stroke:#f2f2f2;stroke-width:0"
     d="m 260.36706,287.54078 c -4.22199,-0.61644 -8.44071,-1.67865 -11.14353,-2.80575 -11.19348,-4.66779 -19.64961,-14.00657 -23.29204,-25.72327 l -1.40443,-4.51764 v -69.27059 -69.27059 l 1.40766,-4.07566 c 1.75507,-5.08154 5.39159,-10.59489 9.04772,-13.717278 3.55284,-3.034185 38.15074,-24.674774 43.75638,-27.369117 5.3271,-2.560464 10.56117,-4.260906 16.69944,-5.425315 4.08199,-0.774343 13.08265,-0.913805 58.97566,-0.913805 h 54.15848 l 52.70817,-30.43374 C 490.27006,17.279469 515.4048,3.0128764 517.13554,2.3144873 c 4.84147,-1.95362298 14.13402,-2.24382243 19.50267,-0.6090535 5.5631,1.6939806 10.72935,4.8538217 14.36414,8.7855802 2.22598,2.407839 12.83409,20.270883 40.65883,68.465578 44.98517,77.917958 45.49809,78.828678 46.78005,83.059848 1.56658,5.17053 1.34229,13.16533 -0.51758,18.44973 -1.88123,5.34507 -5.20499,10.40773 -8.98245,13.68184 -1.59923,1.38612 -21.28052,13.14301 -43.73621,26.12642 l -40.82852,23.6062 -0.3578,-19.08855 c -0.19678,-10.4987 -0.56097,-19.7662 -0.80931,-20.59443 -4.15453,-13.85598 -8.40541,-21.36428 -16.38974,-28.94911 -8.62831,-8.1966 -19.29628,-13.32419 -31.15158,-14.97311 -3.19745,-0.44473 -34.43363,-0.6519 -98.28861,-0.6519 H 303.7778 l -0.17379,47.73647 -0.17379,47.73647 -1.40603,4.21647 c -5.09561,15.28097 -17.41902,25.73737 -32.98448,27.98731 -4.16707,0.60234 -5.87097,0.64959 -8.67265,0.24053 z"
     id="path837" />
</svg>
