<?xml version="1.0" encoding="UTF-8" standalone="no"?>
<svg
   xmlns:dc="http://purl.org/dc/elements/1.1/"
   xmlns:cc="http://creativecommons.org/ns#"
   xmlns:rdf="http://www.w3.org/1999/02/22-rdf-syntax-ns#"
   xmlns:svg="http://www.w3.org/2000/svg"
   xmlns="http://www.w3.org/2000/svg"
   xmlns:sodipodi="http://sodipodi.sourceforge.net/DTD/sodipodi-0.dtd"
   xmlns:inkscape="http://www.inkscape.org/namespaces/inkscape"
   aria-hidden="true"
   focusable="false"
   data-prefix="far"
   data-icon="heart"
   class="svg-inline--fa fa-heart fa-w-16"
   role="img"
   viewBox="0 0 512 512"
   version="1.1"
   id="svg4"
   sodipodi:docname="heart-regular.svg"
   inkscape:version="1.0.2 (e86c870879, 2021-01-15)">
  <metadata
     id="metadata10">
    <rdf:RDF>
      <cc:Work
         rdf:about="">
        <dc:format>image/svg+xml</dc:format>
        <dc:type
           rdf:resource="http://purl.org/dc/dcmitype/StillImage" />
      </cc:Work>
    </rdf:RDF>
  </metadata>
  <defs
     id="defs8" />
  <sodipodi:namedview
     pagecolor="#ffffff"
     bordercolor="#666666"
     borderopacity="1"
     objecttolerance="10"
     gridtolerance="10"
     guidetolerance="10"
     inkscape:pageopacity="0"
     inkscape:pageshadow="2"
     inkscape:window-width="1920"
     inkscape:window-height="1017"
     id="namedview6"
     showgrid="false"
     inkscape:zoom="1.6601562"
     inkscape:cx="256"
     inkscape:cy="256"
     inkscape:window-x="-8"
     inkscape:window-y="-8"
     inkscape:window-maximized="1"
     inkscape:current-layer="svg4"
     inkscape:document-rotation="0" />
  <path
     fill="currentColor"
     d="M458.4 64.3C400.6 15.7 311.3 23 256 79.3 200.7 23 111.4 15.6 53.6 64.3-21.6 127.6-10.6 230.8 43 285.5l175.4 178.7c10 10.2 23.4 15.9 37.6 15.9 14.3 0 27.6-5.6 37.6-15.8L469 285.6c53.5-54.7 64.7-157.9-10.6-221.3zm-23.6 187.5L259.4 430.5c-2.4 2.4-4.4 2.4-6.8 0L77.2 251.8c-36.5-37.2-43.9-107.6 7.3-150.7 38.9-32.7 98.9-27.8 136.5 10.5l35 35.7 35-35.7c37.8-38.5 97.8-43.2 136.5-10.6 51.1 43.1 43.5 113.9 7.3 150.8z"
     id="path2" />
  <path
     style="fill:#ff0000;stroke:#f2f2f2;stroke-width:0"
     d="M 248.4312,425.71294 C 245.03587,422.31718 204.30084,380.84292 157.9089,333.54793 105.5166,280.13577 72.109196,245.62405 69.730752,242.45496 57.340876,225.9464 50.555404,207.94225 48.691581,186.63095 c -2.1468,-24.54691 5.174316,-49.21373 20.449094,-68.89853 5.341714,-6.88394 15.260291,-16.47332 21.740609,-21.019035 17.548566,-12.309709 40.458326,-18.472257 61.869756,-16.642483 22.11023,1.889493 42.43387,10.136102 59.66779,24.211068 2.36824,1.93414 13.14684,12.53441 23.95246,23.55615 l 19.64658,20.03953 19.6299,-20.04051 c 24.86066,-25.38067 30.68923,-30.187575 45.10517,-37.198851 25.07449,-12.195126 51.6668,-14.280111 76.58573,-6.004747 13.76755,4.572086 25.72016,12.068168 36.61145,22.960888 27.55068,27.55427 36.5642,67.11923 23.91184,104.96136 -4.00855,11.98922 -10.72445,24.25728 -18.16043,33.17398 -2.68014,3.21385 -150.59355,154.38193 -174.92933,178.77847 -5.207,5.22 -7.7711,7.37882 -8.76406,7.37882 -0.9771,0 -3.27946,-1.8761 -7.57694,-6.17412 z"
     id="path835" />
  <path
     style="fill:#ff0000;stroke:#f2f2f2;stroke-width:0"
     d="M 250.57882,479.45383 C 240.12688,478.21748 230.00948,473.84565 222.26824,467.22056 217.647,463.26562 40.487243,282.42118 36.004077,277.08235 20.665652,258.81644 8.6100486,233.75024 3.7023036,209.92 -0.425166,189.87849 -0.56373664,166.85354 3.3297997,148.02459 8.8864997,121.15266 21.928628,96.659619 41.489808,76.360318 63.747054,53.263218 88.888886,39.79198 119.94557,34.322963 c 9.42755,-1.660173 29.15181,-2.284786 39.16141,-1.240134 34.31696,3.581487 65.55721,17.795488 91.62952,41.690503 l 5.27767,4.836938 4.35997,-4.059989 c 22.31038,-20.775335 48.78209,-34.411054 78.14821,-40.254574 10.48231,-2.085857 17.64487,-2.768648 29.04348,-2.768648 17.01358,0 30.01781,2.063183 45.90293,7.28272 21.72834,7.139505 39.93267,18.808679 57.06673,36.580401 22.92375,23.77688 36.58009,52.76896 40.29597,85.5474 1.05634,9.31815 0.42733,31.63988 -1.14842,40.75418 -4.74894,27.46841 -16.01653,52.7181 -32.79334,73.48706 -4.6934,5.81023 -181.01281,185.73338 -187.27626,191.10395 -4.99488,4.28283 -12.6495,8.47244 -18.85579,10.32034 -3.59687,1.07095 -13.76607,2.62159 -15.66118,2.38808 -0.33129,-0.0408 -2.36423,-0.28264 -4.51765,-0.53736 z m 9.93592,-49.52442 C 270.90059,419.84894 438.12477,248.8557 440.62466,245.76 c 10.30625,-12.76261 18.0443,-29.26497 21.3282,-45.48511 6.8497,-33.8326 -2.63193,-67.38328 -25.84933,-91.46767 -13.9351,-14.455462 -30.04597,-23.619329 -48.37237,-27.514219 -24.87734,-5.287153 -51.81941,-0.818028 -74.09253,12.290401 -10.79183,6.35133 -15.13057,10.126438 -36.70155,31.933788 l -20.92644,21.15575 -20.93709,-21.16135 C 221.07881,111.36693 212.34916,103.0359 208.74618,100.38638 177.20916,77.195031 136.68458,72.67636 103.17594,88.614831 92.215965,93.82797 78.853403,104.49488 70.545119,114.66297 c -22.110288,27.0597 -28.584287,62.95924 -17.54402,97.28491 2.921279,9.08264 10.034371,22.86663 15.583385,30.198 3.532451,4.66708 28.176583,30.16299 94.030056,97.28 49.08362,50.02541 89.79846,91.42965 90.47741,92.00941 2.13015,1.81897 4.49059,1.34011 7.42279,-1.50588 z"
     id="path837" />
  <path
     style="fill:#ff0000;stroke:#f2f2f2;stroke-width:0"
     d=""
     id="path839" />
  <path
     style="fill:#ff0000;stroke:#f2f2f2;stroke-width:0"
     d=""
     id="path841" />
  <path
     style="fill:#ff0000;stroke:#f2f2f2;stroke-width:0"
     d="M 244.5738,421.19529 C 219.02269,395.7104 88.73247,262.35494 74.040257,246.64972 60.884037,232.58641 51.987447,212.00345 49.337423,189.4978 48.453194,181.98838 48.935458,167.0565 50.282836,160.22588 54.398109,139.36323 64.734918,120.93432 80.846699,105.7353 93.97808,93.347839 108.61084,85.790309 127.09647,81.848217 c 5.18769,-1.106284 8.32801,-1.356426 17.46824,-1.391427 12.00317,-0.04596 15.91315,0.436249 26.96945,3.326118 15.57548,4.071079 30.30359,11.859498 42.33091,22.385142 2.79963,2.45007 13.43463,12.96524 23.63333,23.36704 l 18.54311,18.91235 16.69454,-17.10515 c 26.30016,-26.94703 33.41448,-32.945136 47.11445,-39.722368 15.28454,-7.561101 27.52424,-10.753225 43.36832,-11.310495 28.46573,-1.001201 52.09076,8.655093 71.98118,29.420983 9.57076,9.992 16.31666,20.49087 21.35623,33.23739 12.27379,31.04391 7.08263,68.7933 -13.40513,97.48025 -3.81801,5.34598 -21.75728,23.92228 -113.03283,117.04673 -67.66793,69.0386 -72.43445,73.78993 -74.02613,73.78993 -1.01028,0 -4.23277,-2.82273 -11.51834,-10.08942 z"
     id="path843" />
  <path
     style="fill:#ff0000;stroke:#f2f2f2;stroke-width:0"
     d="m 246.96471,478.5563 c -7.15579,-1.46842 -15.15308,-4.82693 -20.74058,-8.71013 C 222.3858,467.1786 163.26354,407.34978 77.992394,319.84292 32.066623,272.71304 34.099303,274.92324 27.309881,264.73412 3.8546946,229.53409 -4.4635385,187.46505 3.9944011,146.81725 11.547209,110.5194 35.23342,76.366811 67.702917,54.957448 84.74215,43.722318 106.84939,35.822939 127.0097,33.765896 c 9.12336,-0.930896 29.93215,-0.78155 37.31432,0.267807 32.27617,4.587977 61.35271,18.434339 86.06005,40.982129 2.70889,2.472116 5.25099,4.494756 5.64911,4.494756 0.39812,0 2.52207,-1.694117 4.71988,-3.764706 23.76245,-22.386889 53.90993,-36.824185 87.08796,-41.705461 8.81164,-1.296402 29.32548,-1.304404 39.17074,-0.01528 26.51877,3.472329 52.1425,14.891832 72.21871,32.185076 27.60636,23.779551 44.54982,53.883373 50.40551,89.556523 1.14985,7.00494 1.24663,9.43683 0.98052,24.63797 -0.32209,18.39958 -0.79369,22.35107 -4.30046,36.03357 -4.93188,19.24285 -14.16598,38.74436 -25.64892,54.16792 -2.52852,3.39624 -9.71989,11.46062 -15.98083,17.92086 -50.41824,52.02314 -147.55802,150.88065 -167.20797,170.1647 -12.13558,11.90962 -14.83231,13.89875 -23.57622,17.39004 -7.70786,3.0776 -18.96091,4.11132 -26.93739,2.4745 z m 12.38179,-47.42218 c 3.28431,-2.50985 145.40214,-147.40822 176.79918,-180.25826 26.45754,-27.68195 35.40596,-71.0037 22.1383,-107.17751 C 448.86632,118.02142 428.42716,96.333149 404.04616,86.14588 371.58063,72.580596 330.28751,78.620926 302.08,101.06142 c -2.31906,1.84493 -13.63043,12.70924 -25.13639,24.14292 L 256.0237,145.99285 233.5742,123.73564 C 214.76939,105.0919 210.14679,100.82952 205.10118,97.481433 175.36767,77.751323 139.66458,73.544303 108.40175,86.087002 97.197917,90.581997 86.389495,97.947365 76.518111,107.81401 c -15.680476,15.67294 -25.756598,36.65175 -28.360153,59.04673 -1.012668,8.71066 -0.443353,23.77015 1.215177,32.14376 2.634069,13.29893 8.633761,27.80021 16.280137,39.34916 4.582936,6.92199 18.468822,21.49176 90.013148,94.44634 90.09864,91.87464 97.93644,99.68941 99.98308,99.68941 1.0677,0 2.71257,-0.603 3.697,-1.35529 z"
     id="path845" />
  <path
     style="fill:#ff0000;stroke:#f2f2f2;stroke-width:0"
     d=""
     id="path847" />
  <path
     style="fill:#ff0000;stroke:#f2f2f2;stroke-width:0"
     d="M 253.74717,430.20376 C 251.56532,428.54261 120.79399,295.23448 85.517445,258.71059 72.526755,245.26056 69.612045,241.94659 66.157552,236.69874 53.923428,218.11343 48.125351,196.99187 48.975406,174.10667 c 0.542298,-14.59974 3.497581,-26.13998 10.110445,-39.48079 4.990138,-10.06711 10.353688,-17.35243 19.513507,-26.5052 14.356377,-14.345337 28.490002,-22.003986 48.497112,-26.279352 8.3018,-1.774029 26.17066,-1.95345 34.68519,-0.348273 12.51781,2.359883 23.30062,6.165056 33.99366,11.996113 11.16355,6.087634 14.90897,9.286092 38.14198,32.571922 l 22.19024,22.24069 17.93873,-18.28265 C 300.229,103.33441 305.58205,98.82775 319.24706,91.965224 334.60413,84.25295 347.04852,80.911136 362.67,80.304441 c 28.66855,-1.113409 52.60805,8.596691 72.53,29.418889 9.57817,10.011 16.31934,20.50473 21.35623,33.24447 9.50191,24.03305 8.64333,52.47952 -2.35219,77.93206 -5.64148,13.05897 -10.90063,20.67284 -22.58056,32.69073 -64.67909,66.55056 -170.33847,174.18379 -172.92965,176.16018 -2.33948,1.78441 -3.10573,1.85458 -4.94666,0.45299 z"
     id="path849" />
  <path
     style="fill:#ff0000;stroke:none;stroke-width:0"
     d=""
     id="path851" />
  <path
     style="fill:#ff0000;stroke:none;stroke-width:0"
     d="M 254.00351,430.49634 C 252.93764,429.7966 159.87246,335.14107 115.30786,289.43059 66.570029,239.43956 67.143023,240.10022 59.930323,225.58118 c -4.803906,-9.67019 -7.828452,-18.67276 -9.713725,-28.91294 -1.697215,-9.21872 -1.555032,-29.09687 0.268198,-37.49589 2.929457,-13.49503 8.722818,-26.87964 16.230135,-37.49706 5.315129,-7.51705 18.154108,-20.32013 25.143893,-25.073579 22.876406,-15.557252 50.638766,-20.227866 78.305886,-13.173829 9.25886,2.36065 15.19174,4.63087 23.79294,9.104378 12.20981,6.350362 16.00259,9.52986 39.96572,33.50347 l 22.19631,22.20602 17.93494,-18.26893 c 18.1718,-18.5102 27.224,-26.95903 33.95112,-31.688134 5.36322,-3.770291 18.98219,-10.36818 26.6328,-12.902609 12.30933,-4.077728 17.65013,-4.900805 31.89322,-4.915102 10.95053,-0.01099 13.49886,0.171858 18.97412,1.36145 19.05903,4.140888 32.58172,11.337288 46.57902,24.788045 25.26506,24.27855 35.89217,58.24105 28.98743,92.63913 -3.01614,15.02585 -10.12963,31.00885 -19.08898,42.89028 -3.05051,4.04543 -30.74955,32.63107 -107.07511,110.50242 -69.1332,70.53331 -77.25965,78.66009 -78.60706,78.61019 -0.66259,-0.0246 -1.69654,-0.36751 -2.29767,-0.76215 z"
     id="path853" />
  <path
     style="fill:#ff0000;stroke:none;stroke-width:0"
     d="M 253.99706,430.49634 C 252.9377,429.80497 160.94601,336.24739 114.40393,288.52706 66.985124,239.9078 67.131405,240.07684 59.930323,225.58118 c -4.803906,-9.67019 -7.828452,-18.67276 -9.713725,-28.91294 -1.697215,-9.21872 -1.555032,-29.09687 0.268198,-37.49589 4.329511,-19.94462 12.946981,-35.85207 27.19765,-50.2056 8.971077,-9.035837 15.038923,-13.643224 24.013884,-18.234032 28.62479,-14.641935 61.95674,-14.001775 92.22001,1.77114 12.10456,6.308773 16.06918,9.624422 40.04155,33.487112 l 22.23085,22.12911 17.94094,-18.24366 c 18.21607,-18.52342 27.18682,-26.88926 33.87606,-31.591734 5.36322,-3.770291 18.98219,-10.36818 26.6328,-12.902609 12.30933,-4.077728 17.65013,-4.900805 31.89322,-4.915102 10.95053,-0.01099 13.49886,0.171858 18.97412,1.36145 18.89649,4.105574 32.53408,11.321415 46.27901,24.486865 9.53381,9.13188 15.48833,17.14869 21.12137,28.43656 16.05317,32.16847 12.95868,71.77875 -8.0841,103.47874 -2.06614,3.11255 -6.93331,8.88138 -11.42922,13.54653 -22.97117,23.83587 -131.77646,135.02339 -159.01277,162.49426 -11.26861,11.36566 -17.27449,17.0068 -18.07899,16.98105 -0.66259,-0.0212 -1.69945,-0.36145 -2.30412,-0.75609 z"
     id="path855" />
  <path
     style="fill:#ff0000;stroke:none;stroke-width:0"
     d="m 249.67529,479.08711 c -9.47923,-1.93632 -15.49231,-4.18093 -21.69575,-8.09876 -4.34217,-2.74233 -34.6904,-33.15687 -112.94651,-113.1933 C 29.284948,270.09622 34.144197,275.25256 26.954543,264.33139 13.710069,244.21288 5.232329,221.69896 2.0424933,198.17367 0.61525016,187.64764 0.63478127,167.32362 2.0818548,157.21412 5.1284164,135.93031 12.717563,116.02692 24.602655,98.150792 31.432352,87.87838 37.788034,80.302223 46.790068,71.702748 67.883195,51.552883 90.919279,39.899453 120.16941,34.581819 c 8.22002,-1.494389 34.6369,-1.877651 43.51925,-0.631389 32.55192,4.567289 60.15855,17.502512 85.84793,40.224474 3.31788,2.934627 6.26386,5.335684 6.54664,5.335684 0.28277,0 2.43439,-1.762224 4.78137,-3.916053 25.01021,-22.95185 53.80537,-36.711161 86.97642,-41.56031 8.82187,-1.289636 29.35458,-1.294397 39.17074,-0.0091 25.81522,3.380208 51.08543,14.408677 70.77799,30.889061 24.30977,20.344442 41.53689,47.443284 49.08161,77.207024 3.4503,13.61132 4.06673,19.91266 3.74514,38.28348 -0.32407,18.5127 -0.85214,22.91224 -4.3563,36.29438 -3.8636,14.75485 -9.4001,28.05361 -17.08765,41.04481 -6.3621,10.75132 -12.03852,17.92369 -23.88591,30.18081 -41.66924,43.11025 -145.0763,148.37835 -167.21218,170.22151 -12.21725,12.0557 -15.5803,14.55962 -24.05597,17.91058 -6.63516,2.6233 -18.87605,4.14708 -24.3432,3.03031 z m 15.21511,-53.37417 c 13.18175,-12.94883 145.87495,-148.43797 170.04526,-173.62823 30.74918,-32.04676 38.19355,-79.6646 18.6024,-118.99013 -11.40178,-22.88692 -32.57004,-41.599679 -55.79482,-49.32266 -28.76406,-9.564974 -63.26807,-4.658075 -89.19758,12.685007 -7.13571,4.772753 -10.90088,8.209213 -32.50132,29.663843 L 256.03221,145.99782 234.48199,124.6327 C 212.79249,103.1295 209.09082,99.819207 201.63974,95.262895 164.723,72.688437 120.32893,73.629929 88.316259,97.666217 62.1686,117.29884 47.605685,146.25161 47.608677,178.59765 c 0.0016,17.26973 3.456806,31.94206 11.17904,47.47108 5.823864,11.7115 9.046735,16.12765 20.770343,28.46058 22.49016,23.65909 167.71283,171.76059 172.15916,175.57198 4.40547,3.77635 5.09569,3.54642 13.17318,-4.38835 z"
     id="path857" />
  <path
     style="fill:#ff0000;stroke:none;stroke-width:0"
     d="M 241.52985,418.18353 C 225.83476,402.39276 143.85017,318.79787 113.18947,287.32235 67.813137,240.74014 67.327914,240.18441 60.596154,227.08706 c -4.682609,-9.11051 -7.693723,-17.57955 -9.838985,-27.67308 -1.461249,-6.87522 -1.608735,-8.77217 -1.618451,-20.81633 -0.0093,-11.56884 0.163714,-14.05498 1.362606,-19.57647 4.304591,-19.82479 12.920222,-35.6906 27.181122,-50.05443 8.971077,-9.035837 15.038923,-13.643224 24.013884,-18.234032 28.64524,-14.652398 61.93512,-14.013046 92.22001,1.77114 11.95116,6.228822 16.1024,9.692062 40.09778,33.452262 l 22.28706,22.06862 16.86588,-17.18809 c 26.88126,-27.39479 32.66214,-32.248288 46.71384,-39.219913 9.12478,-4.527182 18.23682,-7.747809 27.67675,-9.782282 5.46369,-1.177524 8.08773,-1.363075 19.27529,-1.362997 11.14878,7.9e-5 13.78864,0.185521 18.97412,1.332884 20.58677,4.55512 34.96121,12.782922 50.1794,28.722258 29.06689,30.44428 35.40986,75.78174 16.09567,115.04653 -5.08053,10.32844 -9.95672,17.14153 -18.97459,26.51158 C 397.2963,289.29446 260.76876,428.4 258.41459,430.07632 c -0.93337,0.66461 -2.18436,1.20839 -2.77999,1.20839 -0.61004,0 -6.7694,-5.72112 -14.10475,-13.10118 z"
     id="path859" />
  <path
     style="fill:#ff0000;stroke:none;stroke-width:0"
     d="m 249.67529,479.08711 c -9.61886,-1.96485 -15.33687,-4.08276 -21.45539,-7.94696 C 223.82051,468.36169 193.97788,438.5528 124.98824,368.02522 36.530993,277.59606 35.606149,276.62821 29.646103,268.25047 8.815007,238.96919 -1.4739626,202.37751 1.1682223,166.97178 3.85698,130.94196 17.941469,100.65707 44.240089,74.357361 61.295393,57.301352 77.894644,46.888228 99.327464,39.799683 114.35855,34.828404 126.1816,33.127835 145.68264,33.132186 c 14.0408,0.0031 23.22906,1.080103 35.35582,4.14411 26.17063,6.612401 47.71074,18.356879 70.13144,38.238297 2.4785,2.197797 4.68672,3.995995 4.90716,3.995995 0.22044,0 2.52053,-1.925356 5.11131,-4.278571 25.19976,-22.889001 53.51918,-36.354238 86.64177,-41.196177 7.78362,-1.137827 28.33896,-1.311597 37.07339,-0.313409 32.6221,3.728119 61.64939,18.330002 85.23446,42.87634 20.96468,21.819152 33.62644,46.634489 39.28906,77.001229 1.36725,7.33212 1.546,39.40797 0.26518,47.58588 -2.31435,14.77689 -8.4132,33.44248 -15.46673,47.33611 -7.94448,15.64855 -13.96249,23.88561 -28.37101,38.83238 -39.92518,41.41666 -161.71376,165.34327 -173.22407,176.26507 -9.52279,9.03589 -17.00854,13.03447 -27.98557,14.94869 -4.8169,0.84 -12.15292,1.09433 -14.96956,0.51898 z m 12.7327,-50.96476 c 7.46549,-7.08041 135.88911,-138.12578 170.74485,-174.23059 11.018,-11.41282 16.97011,-20.19896 22.61506,-33.38296 11.74799,-27.43788 11.39612,-58.51197 -0.95884,-84.67821 -5.71807,-12.11015 -11.83598,-20.53188 -22.09752,-30.41883 -13.65348,-13.155034 -28.8439,-21.117123 -47.30956,-24.797392 -5.61471,-1.11903 -8.85013,-1.362721 -18.26786,-1.375929 -11.9554,-0.01677 -15.88424,0.440529 -26.49816,3.084242 -14.19466,3.535603 -29.09062,11.008185 -40.06184,20.097079 -2.15341,1.78395 -13.07372,12.32339 -24.26735,23.42097 l -20.35205,20.17742 -18.80089,-18.68506 C 226.81334,117.0563 216.34983,106.80464 213.90159,104.55162 208.1578,99.265831 199.36776,93.528371 190.81274,89.481 156.67932,73.33251 118.53158,75.973347 89.875589,96.468534 82.092237,102.03531 69.726232,114.66932 64.908764,121.97647 c -10.920323,16.56398 -16.422603,33.47605 -17.147666,52.70588 -0.695112,18.43548 2.860758,35.01829 10.991067,51.25689 6.189807,12.36285 9.201939,16.40645 22.841384,30.66311 26.213681,27.39992 167.918741,171.87621 170.901681,174.2439 3.28777,2.60963 4.69765,2.22221 9.91276,-2.7239 z"
     id="path861" />
  <path
     style="fill:#ff0000;stroke:none;stroke-width:0"
     d="M 253.99609,430.49634 C 252.37256,429.4377 129.31697,304.13076 93.578177,267.14353 84.615045,257.86729 75.432191,248.24471 73.171835,245.76 62.771674,234.32758 54.587127,217.40773 50.753112,199.41398 c -1.474816,-6.92159 -1.612082,-8.71655 -1.614911,-21.11751 -0.0029,-12.73831 0.09851,-13.98741 1.687338,-20.78118 4.550761,-19.45893 12.744409,-34.27819 26.826697,-48.51951 4.169388,-4.21647 9.791783,-9.286797 12.494212,-11.26739 10.051302,-7.366539 25.086852,-13.696785 38.455902,-16.190644 9.0461,-1.687456 25.95293,-1.552599 35.13753,0.280275 18.05233,3.60251 35.49005,11.867756 48.58953,23.030779 2.65035,2.25856 13.57415,12.87923 24.27509,23.60148 l 19.45627,19.495 21.80491,-21.76361 c 13.53269,-13.50706 23.86156,-23.2965 27.22608,-25.8042 10.91206,-8.133149 29.57494,-16.125711 43.97177,-18.831338 8.3189,-1.563389 27.70222,-1.570392 35.51697,-0.01283 12.28473,2.448474 24.07388,7.279575 34.31124,14.060467 8.37812,5.549401 21.50177,18.684061 27.07508,27.097821 20.66558,31.1978 22.86304,68.26316 6.09993,102.88959 -6.90825,14.26989 -7.10376,14.49914 -49.05842,57.5247 -105.36217,108.05157 -145.11333,148.19059 -146.71189,148.1434 -0.65998,-0.0195 -1.69514,-0.3583 -2.30035,-0.75294 z"
     id="path863" />
  <path
     style="fill:#ff0000;stroke:none;stroke-width:0"
     d="m 249.07294,479.08858 c -8.06554,-1.63768 -15.11441,-4.32415 -20.84952,-7.9462 C 223.60013,468.2225 190.84369,435.42515 112.61368,355.38824 27.630373,268.44204 31.922569,273.11146 22.769715,257.64842 -6.1605771,208.77294 -6.6721732,149.34436 21.437575,102.90303 26.589056,94.392049 34.251433,84.511766 41.747693,76.71407 63.914689,53.655707 88.322668,40.488968 119.92356,34.542565 c 8.37449,-1.575845 40.48149,-1.587698 48.73526,-0.01799 32.61737,6.203184 56.4892,18.057849 82.52236,40.980307 2.4847,2.187809 4.66338,3.984106 4.84152,3.991771 0.17812,0.0077 2.75318,-2.170513 5.72235,-4.840396 24.87924,-22.371492 53.44622,-35.849002 86.10568,-40.623473 8.76733,-1.281692 29.93843,-1.297083 39.46221,-0.02869 21.08013,2.807491 42.51763,10.956531 59.67136,22.682886 12.25617,8.378368 25.82971,21.469517 35.21877,33.967137 13.53663,18.018373 21.79903,36.535533 26.60837,59.632943 1.2957,6.22274 1.54735,9.32616 1.80911,22.30964 0.45326,22.48237 -0.83358,32.94508 -6.25743,50.87624 -5.74252,18.98467 -17.30933,40.58549 -28.5455,53.30824 -10.40815,11.78518 -177.25257,181.88144 -186.02382,189.64947 -7.373,6.52971 -15.50926,10.45647 -25.14895,12.13748 -4.79269,0.83578 -12.71489,1.10056 -15.57191,0.52045 z m 9.30423,-47.48602 c 2.01216,-1.04053 124.15361,-125.27201 173.63387,-176.60501 11.45465,-11.88355 16.04717,-18.27936 21.77125,-30.3199 16.13683,-33.94361 13.67149,-71.73148 -6.68067,-102.39932 -5.39364,-8.12745 -17.33991,-20.46618 -25.23048,-26.059351 -13.62837,-9.660364 -29.07362,-15.255577 -46.45775,-16.829837 -26.51369,-2.401007 -55.74156,6.761788 -75.46767,23.658748 -2.47038,2.11607 -13.36557,12.63338 -24.21154,23.3718 l -19.71995,19.5244 -20.78453,-20.5571 c -11.4315,-11.30641 -22.79776,-22.15694 -25.25836,-24.11228 -12.42126,-9.870728 -29.62633,-17.502407 -46.58813,-20.665175 -5.58294,-1.041018 -9.35632,-1.321484 -17.91497,-1.331573 -14.0107,-0.01652 -22.35317,1.436085 -34.93648,6.083183 -16.003236,5.910101 -32.267368,18.611245 -43.989813,34.352955 -4.078037,5.47627 -11.351992,19.4249 -13.462591,25.81605 -7.53049,22.8032 -7.236519,47.48039 0.824459,69.20867 3.128251,8.43217 9.476249,20.45968 13.905254,26.34619 5.431615,7.21907 22.924547,25.34974 113.188441,117.31499 25.52546,26.00659 51.28467,52.27005 57.24268,58.36325 11.07248,11.32371 15.98344,15.72616 17.54264,15.72616 0.48364,0 1.6511,-0.39908 2.59434,-0.88685 z"
     id="path865" />
  <path
     style="fill:#ff0000;stroke:none;stroke-width:0;opacity:1"
     d="M 254.11521,430.67488 C 252.63432,429.80983 111.8568,286.26519 83.102914,256.30118 68.492364,241.07572 65.658741,237.36074 59.920315,225.90788 51.715948,209.53345 48.289774,193.30373 48.980804,174.0876 c 0.90651,-25.20817 10.276737,-46.48891 28.652325,-65.07235 8.936285,-9.037371 15.005916,-13.653121 23.958021,-18.21927 28.02558,-14.294843 59.38399,-14.247172 89.18672,0.13558 7.44527,3.593075 14.24299,7.814283 19.74448,12.26081 1.65647,1.33882 12.5588,11.92781 24.22741,23.53108 l 21.21563,21.09686 21.8526,-21.67938 c 12.95779,-12.85508 24.05922,-23.3329 27.27377,-25.74172 9.68986,-7.261055 27.0619,-15.101369 40.05648,-18.078196 11.62623,-2.663364 29.60329,-2.849705 41.05551,-0.42556 17.5151,3.707503 32.02188,11.411001 45.11491,23.957256 8.15389,7.81338 12.99994,13.7869 18.01598,22.20753 17.89215,30.03629 18.43019,67.79223 1.42784,100.19466 -4.82033,9.18641 -8.66122,14.44168 -16.74297,22.90846 -17.61366,18.45279 -125.8351,129.06616 -156.93095,160.39944 -12.96793,13.06696 -19.98961,19.72429 -20.78738,19.70874 -0.66259,-0.0129 -1.64628,-0.2814 -2.18597,-0.59666 z"
     id="path867" />
  <path
     style="opacity:1;fill:#ff0000;stroke:none;stroke-width:0"
     d="M 238.82251,415.48063 C 219.26479,395.7384 140.09466,315.00677 111.07561,285.21412 68.00143,240.99166 66.752444,239.54621 60.047659,226.15947 51.646025,209.3848 48.283959,193.56122 48.982241,174.08 c 0.678595,-18.93196 5.716187,-34.352 16.524781,-50.58226 5.142357,-7.7218 17.137553,-20.32776 24.544743,-25.794491 9.086875,-6.706393 23.971975,-13.163165 36.654525,-15.899784 9.05218,-1.953264 27.34201,-1.952893 37.03359,7.51e-4 9.15321,1.845117 18.21953,4.880552 26.60365,8.906991 14.47653,6.952295 18.49741,10.199583 43.81121,35.382253 l 21.82533,21.71227 21.84526,-21.67209 c 12.95244,-12.84976 24.05212,-23.32579 27.26643,-25.73443 10.47961,-7.852859 29.31728,-16.052789 43.36942,-18.878454 8.34932,-1.678919 29.10002,-1.524181 37.43488,0.279152 19.33846,4.184074 32.94293,11.710177 47.52787,26.292802 13.87081,13.8686 21.65799,27.09157 26.45052,44.91409 7.58494,28.20696 1.64845,61.10537 -15.53114,86.06937 -4.24878,6.17399 -11.10005,13.30032 -104.29437,108.48148 -68.81528,70.28238 -82.31945,83.73687 -84.04894,83.73984 -1.17172,0.002 -4.98351,-3.50785 -17.17749,-15.81686 z"
     id="path945" />
  <path
     style="opacity:1;fill:#000000;stroke:none;stroke-width:0"
     d="m 246.13881,478.15763 c -6.13888,-1.318 -13.22928,-4.23477 -18.08582,-7.43997 -3.20624,-2.11603 -12.16779,-10.74114 -33.8942,-32.62171 C 153.69568,397.34573 50.126327,291.44053 38.714772,279.14613 21.453813,260.5498 7.604229,231.60946 2.970551,204.45437 -0.940504,181.53412 0.184993,158.04467 6.194705,137.1653 12.79665,114.22835 24.415506,94.31458 41.665984,76.37044 63.448004,53.71253 88.208065,40.17283 118.19237,34.52303 c 8.42404,-1.5873 34.15659,-2.29267 43.5377,-1.19343 8.70874,1.02045 19.75051,3.41518 28.1957,6.11506 22.07575,7.05749 39.23124,16.83584 58.44466,33.31252 L 256,79.3 l 1.3154,-1.15743 c 0.72347,-0.63658 3.21281,-2.86875 5.53187,-4.96038 17.76051,-16.01874 41.57912,-29.09158 64.15059,-35.20905 15.0764,-4.08611 24.06292,-5.25673 40.34003,-5.25488 17.93365,0.002 29.26573,1.65866 44.07628,6.44343 22.72518,7.3417 40.56605,18.51176 57.77347,36.17162 14.37149,14.74937 24.4358,29.96566 31.55526,47.70855 7.29123,18.17097 9.96384,32.32708 9.96855,52.80075 0.005,19.85715 -1.2545,29.70854 -5.80392,45.41217 -5.53553,19.10748 -17.9133,42.53789 -29.15078,55.18077 -9.22326,10.37674 -155.97105,160.36208 -178.74725,182.69077 -9.41366,9.2287 -14.57825,13.07893 -21.37316,15.93386 -8.90239,3.74038 -20.72201,4.98153 -29.49753,3.09745 z m 12.46581,-47.20237 c 3.07887,-1.90285 173.215,-175.43299 181.3214,-184.93854 4.48377,-5.25766 10.24459,-14.25509 13.5093,-21.09925 12.99969,-27.25259 14.2065,-57.64141 3.36021,-84.61369 -10.67756,-26.55269 -34.31041,-48.95459 -60.24345,-57.10559 -31.28587,-9.83345 -67.69529,-3.10517 -93.9808,17.36718 -2.66756,2.07761 -14.25611,13.05036 -25.75234,24.38388 L 255.9167,145.55564 235.123,125.04069 C 212.12427,102.35027 207.76525,98.58157 198.16144,93.08454 167.89557,75.76101 131.93651,74.05872 102.62139,88.5617 c -10.960457,5.42244 -21.80084,13.92973 -30.655073,24.05741 -23.218921,26.55836 -30.526494,64.65252 -19.033142,99.21921 2.289492,6.88573 8.565712,19.71988 12.590182,25.74546 5.056253,7.57042 13.183103,16.11176 87.671013,92.14252 99.57026,101.63263 100.35623,102.41748 102.56352,102.41748 0.50801,0 1.78903,-0.53483 2.84673,-1.18852 z"
     id="path947" />
  <path
     style="opacity:1;fill:#ff0000;stroke:none;stroke-width:0"
     d="M 238.21815,414.8781 C 218.64297,395.12774 140.71898,315.66726 110.4707,284.61176 77.634508,250.89928 70.752702,243.52195 66.861985,237.86297 59.537855,227.21016 53.507517,212.7886 50.518064,198.77647 c -1.836238,-8.6068 -2.033806,-30.54837 -0.347119,-38.55059 3.5862,-17.01417 10.740809,-32.05809 21.243552,-44.66861 5.273777,-6.33216 15.544806,-15.837512 21.046679,-19.477703 9.896704,-6.54793 22.200494,-11.677133 34.245114,-14.276102 9.07055,-1.957228 27.34013,-1.953101 37.07344,0.0084 9.92845,2.0008 19.93138,5.472003 28.87753,10.021044 13.12502,6.673961 16.22759,9.230751 40.90147,33.706421 l 22.43403,22.25381 21.83891,-21.66578 c 12.94782,-12.84516 24.046,-23.31965 27.26009,-25.72813 10.47961,-7.852854 29.31728,-16.052784 43.36942,-18.878449 8.3353,-1.676099 29.10087,-1.524119 37.40856,0.273787 19.39781,4.197971 32.96139,11.697795 47.55419,26.294532 11.2157,11.21873 17.61496,20.71018 22.771,33.77419 10.39709,26.34337 9.11124,55.90259 -3.60054,82.77014 -4.57393,9.66742 -10.11126,17.66901 -17.88339,25.84192 -19.96457,20.99411 -163.36197,167.33613 -172.59691,176.14114 -3.1272,2.98161 -5.38823,4.67095 -6.25808,4.67575 -0.98769,0.005 -5.83397,-4.50458 -17.63786,-16.41412 z"
     id="path949" />
  <path
     style="opacity:0;fill:#ff0000;stroke:none;stroke-width:0"
     d="M 237.60548,414.27304 C 218.15186,394.66664 141.07497,316.0701 109.56511,283.70824 77.249314,250.51862 70.748024,243.53531 66.7748,237.74534 59.474996,227.10771 53.525832,212.85066 50.513922,198.77647 c -1.177772,-5.50355 -1.354998,-8.12343 -1.365028,-20.17882 -0.01298,-15.59947 0.722087,-20.53708 4.802575,-32.26001 5.458803,-15.68274 13.610604,-27.97593 26.998113,-40.71404 10.188758,-9.694534 20.043988,-15.693826 33.401958,-20.333189 9.05453,-3.14473 16.60354,-4.557321 26.59905,-4.97728 18.46516,-0.775812 34.61777,2.841319 51.90261,11.622799 12.90461,6.556118 16.09193,9.1875 40.71864,33.61642 l 22.44713,22.26684 20.62111,-20.48704 c 11.3416,-11.26788 22.38298,-21.99627 24.53639,-23.84088 11.06524,-9.478443 30.94444,-18.733732 46.98353,-21.874416 6.84275,-1.339909 22.19342,-1.831492 30.11765,-0.964474 14.55826,1.592872 28.11177,6.615644 40.99666,15.192883 8.2142,5.468047 21.30954,18.686037 26.97714,27.229797 7.50156,11.30842 12.28266,22.77936 15.23345,36.54847 1.14798,5.35675 1.35971,8.21452 1.38351,18.67294 0.0241,10.59052 -0.17055,13.33427 -1.36741,19.27529 -4.22317,20.96322 -12.95234,38.3054 -26.46641,52.58062 C 420.3539,265.65995 311.31617,377.1246 279.2011,409.45438 262.20407,426.56504 257.17978,431.2946 256,431.29447 c -1.17221,-1.3e-4 -5.24802,-3.77169 -18.39452,-17.02143 z"
     id="path951" />
  <path
     style="opacity:0;fill:#ff0000;stroke:none;stroke-width:0"
     d="M 237.60548,414.27304 C 218.15186,394.66664 141.07497,316.0701 109.56511,283.70824 77.249314,250.51862 70.748024,243.53531 66.7748,237.74534 59.474996,227.10771 53.525832,212.85066 50.513922,198.77647 c -1.177772,-5.50355 -1.354998,-8.12343 -1.365028,-20.17882 -0.01298,-15.59947 0.722087,-20.53708 4.802575,-32.26001 5.458803,-15.68274 13.610604,-27.97593 26.998113,-40.71404 10.188758,-9.694534 20.043988,-15.693826 33.401958,-20.333189 9.05453,-3.14473 16.60354,-4.557321 26.59905,-4.97728 18.46516,-0.775812 34.61777,2.841319 51.90261,11.622799 12.90461,6.556118 16.09193,9.1875 40.71864,33.61642 l 22.44713,22.26684 20.62111,-20.48704 c 11.3416,-11.26788 22.38298,-21.99627 24.53639,-23.84088 11.06524,-9.478443 30.94444,-18.733732 46.98353,-21.874416 6.84275,-1.339909 22.19342,-1.831492 30.11765,-0.964474 14.55826,1.592872 28.11177,6.615644 40.99666,15.192883 8.2142,5.468047 21.30954,18.686037 26.97714,27.229797 7.50156,11.30842 12.28266,22.77936 15.23345,36.54847 1.14798,5.35675 1.35971,8.21452 1.38351,18.67294 0.0241,10.59052 -0.17055,13.33427 -1.36741,19.27529 -4.22317,20.96322 -12.95234,38.3054 -26.46641,52.58062 C 420.3539,265.65995 311.31617,377.1246 279.2011,409.45438 262.20407,426.56504 257.17978,431.2946 256,431.29447 c -1.17221,-1.3e-4 -5.24802,-3.77169 -18.39452,-17.02143 z"
     id="path953" />
  <path
     style="opacity:0;fill:#ff0000;stroke:none;stroke-width:0"
     d="m 246.07056,478.47334 c -6.18678,-1.32554 -12.92722,-4.10457 -17.90442,-7.38186 C 223.0139,467.69893 189.25622,433.89805 109.60286,352.37647 30.369389,271.28463 33.97828,275.14025 26.159353,263.22824 13.40775,243.80137 4.8884572,220.51343 1.6999136,196.36706 0.56740521,187.79074 0.74967986,165.66924 2.0225224,157.21412 6.7137632,126.05156 19.985344,99.184429 41.85834,76.570052 64.052941,53.62317 88.917655,40.190571 119.56706,34.589675 c 7.28588,-1.331428 33.83508,-1.887116 42.5183,-0.88993 9.73995,1.118543 19.82007,3.432675 30.64279,7.034785 20.59025,6.853031 37.25637,16.532795 55.70536,32.353969 l 7.61286,6.528499 3.97144,-3.516734 c 24.83209,-21.988927 47.93135,-34.037983 77.02216,-40.176389 10.91564,-2.30329 16.84411,-2.861391 30.39532,-2.861391 18.11865,0 28.87917,1.575516 43.99463,6.441537 23.20505,7.47025 40.70711,18.495005 58.40615,36.790727 18.71132,19.342118 30.91493,41.013272 37.08023,65.846992 3.12616,12.59209 3.87906,19.21632 3.87849,34.1238 -6e-4,20.90059 -1.5518,32.09455 -6.66147,48.07757 -6.14307,19.21545 -17.19155,39.78703 -28.00143,52.13689 -9.85338,11.2571 -177.77204,182.52368 -185.93702,189.64419 -5.18747,4.52388 -11.11313,8.17235 -16.37537,10.08244 -8.7201,3.16523 -19.46039,4.04256 -27.74894,2.26671 z m 14.09161,-48.54393 c 5.70115,-4.7432 171.05474,-173.5263 179.54209,-183.26588 4.59714,-5.27541 9.9061,-13.52594 13.56582,-21.08235 14.36342,-29.65686 14.56163,-62.85021 0.54707,-91.61269 C 442.6764,111.10399 421.04527,91.780963 397.90791,84.024894 369.41155,74.47239 335.15578,79.18351 309.30824,96.209812 301.08678,101.62545 297.98066,104.4686 270.00452,132.18599 L 255.99962,146.06135 240.7904,130.9694 C 208.06114,98.4925 203.74633,95.053228 186.4773,87.677174 158.91076,75.90279 128.08632,76.341744 102.81077,88.868622 88.600576,95.911376 74.118867,108.62654 65.016254,122.0528 c -18.995418,28.01804 -22.637548,64.78355 -9.547687,96.37919 5.10684,12.32663 10.788883,21.43406 18.928725,30.33977 13.854931,15.15855 166.673518,171.18077 175.962948,179.65177 2.45229,2.23623 4.9686,4.06588 5.59181,4.06588 0.6232,0 2.51776,-1.152 4.21012,-2.56 z"
     id="path955" />
  <path
     style="opacity:1;fill:#ff0000;stroke:none;stroke-width:0"
     d="M 237.60548,414.27304 C 218.15186,394.66664 141.07497,316.0701 109.56511,283.70824 77.249314,250.51862 70.748024,243.53531 66.7748,237.74534 59.474996,227.10771 53.525832,212.85066 50.513922,198.77647 c -1.177772,-5.50355 -1.354998,-8.12343 -1.365028,-20.17882 -0.01298,-15.59947 0.722087,-20.53708 4.802575,-32.26001 5.458803,-15.68274 13.610604,-27.97593 26.998113,-40.71404 10.188758,-9.694534 20.043988,-15.693826 33.401958,-20.333189 9.05453,-3.14473 16.60354,-4.557321 26.59905,-4.97728 18.46516,-0.775812 34.61777,2.841319 51.90261,11.622799 12.90461,6.556118 16.09193,9.1875 40.71864,33.61642 l 22.44713,22.26684 20.62111,-20.48704 c 11.3416,-11.26788 22.38298,-21.99627 24.53639,-23.84088 11.06524,-9.478443 30.94444,-18.733732 46.98353,-21.874416 6.84275,-1.339909 22.19342,-1.831492 30.11765,-0.964474 14.55826,1.592872 28.11177,6.615644 40.99666,15.192883 8.2142,5.468047 21.30954,18.686037 26.97714,27.229797 7.50156,11.30842 12.28266,22.77936 15.23345,36.54847 1.14798,5.35675 1.35971,8.21452 1.38351,18.67294 0.0241,10.59052 -0.17055,13.33427 -1.36741,19.27529 -4.22317,20.96322 -12.95234,38.3054 -26.46641,52.58062 C 420.3539,265.65995 311.31617,377.1246 279.2011,409.45438 262.20407,426.56504 257.17978,431.2946 256,431.29447 c -1.17221,-1.3e-4 -5.24802,-3.77169 -18.39452,-17.02143 z"
     id="path957" />
  <path
     style="fill:#000000;stroke:#000000;stroke-width:0"
     d="M 235.51872,412.17111 C 198.79214,375.13404 96.229422,270.25335 78.970411,252.08471 66.051282,238.48468 59.433306,227.82655 54.26098,212.29062 c -4.366199,-13.11458 -5.09899,-17.94429 -5.112092,-33.69298 -0.01298,-15.59947 0.722087,-20.53707 4.802575,-32.26001 5.443761,-15.63952 13.446881,-27.75664 26.756107,-40.51006 10.30401,-9.873712 20.05753,-15.82788 33.65048,-20.542396 11.53327,-4.000146 16.83099,-4.818358 31.11018,-4.804844 10.78446,0.01021 13.58189,0.21082 18.97412,1.360706 16.08411,3.429916 31.9836,10.557359 44.27294,19.846724 1.98777,1.50253 13.44142,12.49962 25.45256,24.43798 l 21.83844,21.70611 20.62744,-20.49338 c 11.3451,-11.27136 22.38933,-22.0026 24.54274,-23.8472 11.06287,-9.476424 30.92494,-18.724754 46.98353,-21.876839 6.84456,-1.343493 22.8681,-1.849507 30.45136,-0.961636 14.48667,1.696142 27.93845,6.721987 40.66296,15.192464 8.45261,5.626751 21.31967,18.684251 27.2539,27.657271 10.49595,15.8707 15.76265,32.22984 16.47695,51.17982 0.50583,13.41939 -0.88699,23.50765 -5.03134,36.44235 -4.73708,14.78459 -12.34908,27.80873 -22.61981,38.7025 -16.00793,16.979 -159.06416,163.01133 -171.71117,175.28339 -4.30772,4.18001 -6.81266,6.17771 -7.75574,6.18522 -1.03505,0.008 -6.26893,-4.90605 -20.36839,-19.1247 z"
     id="path854" />
  <path
     style="fill:#000000;stroke:#000000;stroke-width:0"
     d="m 246.11244,480.85944 c -6.18677,-1.32554 -12.92721,-4.10457 -17.90441,-7.38186 C 223.05579,470.08503 189.2981,436.28415 109.64474,354.76256 30.41127,273.67072 34.02016,277.52634 26.20123,265.61433 13.44963,246.18746 4.93034,222.89952 1.74179,198.75315 0.60929,190.17683 0.79156,168.05533 2.0644,159.6002 6.75564,128.43765 20.02723,101.57051 41.90022,78.95614 64.09482,56.00925 88.95954,42.57665 119.60894,36.97576 c 7.28589,-1.33143 33.83509,-1.88712 42.51831,-0.88993 9.73995,1.11854 19.82007,3.43267 30.64279,7.03478 20.59025,6.85303 37.25636,16.5328 55.70536,32.35397 l 7.61286,6.5285 3.97144,-3.51673 c 24.8321,-21.98893 47.93135,-34.03799 77.02217,-40.17639 10.91563,-2.30329 16.8441,-2.86139 30.39532,-2.86139 18.11865,0 28.87916,1.57551 43.99462,6.44153 23.20505,7.47026 40.70712,18.49501 58.40616,36.79073 18.71132,19.34212 30.91493,41.01328 37.08023,65.847 3.12615,12.59208 3.87906,19.21632 3.87849,34.1238 -6.1e-4,20.90059 -1.5518,32.09455 -6.66147,48.07757 -6.14307,19.21545 -17.19155,39.78703 -28.00143,52.13689 -9.85338,11.2571 -177.77205,182.52369 -185.93703,189.64419 -5.18747,4.52388 -11.11313,8.17236 -16.37537,10.08245 -8.7201,3.16523 -19.46039,4.04256 -27.74895,2.26671 z m 14.09162,-48.54393 c 5.70115,-4.7432 171.05474,-173.52631 179.54209,-183.26589 4.59715,-5.27541 9.90611,-13.52594 13.56583,-21.08235 14.36342,-29.65686 14.56163,-62.85021 0.54707,-91.6127 -11.14076,-22.86449 -32.77188,-42.18752 -55.90925,-49.94359 -28.49636,-9.5525 -62.75213,-4.84138 -88.59967,12.18492 -8.22146,5.41564 -11.32758,8.25879 -39.30372,35.97618 l -14.0049,13.87536 -15.20922,-15.09195 C 208.10303,100.87859 203.78822,97.43931 186.51918,90.06326 158.95265,78.28888 128.1282,78.72783 102.85266,91.25471 c -14.2102,7.04275 -28.69191,19.75792 -37.79452,33.18418 -18.99542,28.01804 -22.63755,64.78355 -9.54769,96.37919 5.10684,12.32663 10.78888,21.43406 18.92873,30.33977 13.85493,15.15855 166.67352,171.18077 175.96295,179.65177 2.45229,2.23624 4.9686,4.06589 5.59181,4.06589 0.6232,0 2.51776,-1.152 4.21012,-2.56 z"
     id="path856" />
  <path
     style="fill:#ffffff;stroke:#000000;stroke-width:0"
     d="M 249.957,425.95138 C 242.5739,419.10322 126.34061,300.67556 89.352402,262.31473 82.010578,254.70045 74.304217,246.43765 72.227155,243.95294 64.195173,234.3446 58.584305,224.07996 54.269372,211.10059 c -4.215573,-12.68051 -4.582168,-15.38898 -4.521606,-33.40647 0.05079,-15.11025 0.135496,-16.26783 1.586781,-21.68471 5.2821,-19.71528 12.899938,-32.87256 27.573683,-47.62436 11.746569,-11.809045 21.10102,-17.711208 36.56411,-23.070019 3.37991,-1.171324 8.25897,-2.578476 10.84236,-3.127003 6.25453,-1.32802 25.19807,-1.868205 32.29652,-0.920952 10.97794,1.464951 25.4542,6.259929 35.94878,11.907327 11.31849,6.090767 14.85843,9.078187 38.68041,32.643107 L 256,148.3315 278.83937,125.73469 c 19.22324,-19.01907 23.82497,-23.25586 29.06435,-26.759361 9.93841,-6.645676 23.58209,-12.786534 35.13628,-15.814416 7.68317,-2.013444 14.9959,-2.615297 27.59032,-2.270739 15.63011,0.427608 22.74415,2.098748 36.28149,8.52278 8.20866,3.895352 13.74882,7.508517 20.31464,13.248756 17.66938,15.44764 29.04177,34.2817 33.6096,55.6616 1.59563,7.46843 2.25281,25.64724 1.21199,33.5261 -2.48056,18.77749 -10.44224,37.51501 -22.13909,52.10353 -4.78287,5.96528 -29.40123,31.31069 -124.03572,127.69883 -50.14986,51.07917 -58.1966,59.03059 -59.73834,59.03059 -0.59255,0 -3.37259,-2.12894 -6.17789,-4.73098 z"
     id="path858" />
  <path
     style="fill:#ff0000;stroke:#000000;stroke-width:0;opacity:0"
     d="m 252.29051,427.45559 c -1.76966,-1.44343 -24.48839,-24.28014 -50.48607,-50.74824 -25.99767,-26.4681 -53.65745,-54.62923 -61.46618,-62.58029 C 114.03862,287.34804 82.348009,254.54194 76.332396,247.86824 64.273462,234.49008 56.950197,220.84528 52.041963,202.61 50.572655,197.15116 50.418667,195.46412 50.147365,181.85336 49.79369,164.11007 50.244506,160.12458 53.841712,149.19301 58.27123,135.73213 64.153168,125.4564 73.690595,114.51706 87.985938,98.120438 104.06637,88.146474 124.547,82.973141 c 4.74617,-1.198865 6.79009,-1.329923 20.92123,-1.341497 15.13816,-0.0124 15.8645,0.04157 21.74947,1.615849 9.52114,2.546989 15.0008,4.537711 23.04169,8.370873 13.92599,6.638645 17.69835,9.739254 46.03335,37.836024 l 19.74686,19.58085 17.9002,-17.7847 c 23.09104,-22.94204 28.69858,-28.17446 34.10169,-31.820449 9.59106,-6.471977 23.53309,-12.774687 35.60087,-16.093925 5.86453,-1.613037 6.45282,-1.657569 22.28706,-1.687059 17.21126,-0.03205 19.05565,0.169344 28.55789,3.118367 7.09318,2.201375 20.54152,8.998574 26.5878,13.438286 6.77443,4.97439 17.9768,16.40514 23.00895,23.47803 7.53861,10.59583 13.74421,24.48522 16.41272,36.73503 0.66326,3.04471 1.09436,8.93647 1.32222,18.07059 0.30713,12.3115 0.21694,14.18494 -0.98455,20.45253 -3.22735,16.83554 -10.69577,33.46617 -20.57051,45.80629 -5.98715,7.48195 -30.1376,32.38037 -127.12609,131.06342 -46.36725,47.17736 -55.57627,56.26836 -56.99885,56.26836 -0.347,0 -2.07882,-1.181 -3.84849,-2.62442 z"
     id="path860" />
  <path
     style="opacity:0;fill:#ff0000;stroke:#000000;stroke-width:0"
     d="m 252.29051,427.45559 c -1.76966,-1.44343 -24.48839,-24.28014 -50.48607,-50.74824 -25.99767,-26.4681 -53.65745,-54.62923 -61.46618,-62.58029 C 114.03862,287.34804 82.348009,254.54194 76.332396,247.86824 64.273462,234.49008 56.950197,220.84528 52.041963,202.61 50.572655,197.15116 50.418667,195.46412 50.147365,181.85336 49.79369,164.11007 50.244506,160.12458 53.841712,149.19301 58.27123,135.73213 64.153168,125.4564 73.690595,114.51706 87.985938,98.120438 104.06637,88.146474 124.547,82.973141 c 4.74617,-1.198865 6.79009,-1.329923 20.92123,-1.341497 15.13816,-0.0124 15.8645,0.04157 21.74947,1.615849 9.52114,2.546989 15.0008,4.537711 23.04169,8.370873 13.92599,6.638645 17.69835,9.739254 46.03335,37.836024 l 19.74686,19.58085 17.9002,-17.7847 c 23.09104,-22.94204 28.69858,-28.17446 34.10169,-31.820449 9.59106,-6.471977 23.53309,-12.774687 35.60087,-16.093925 5.86453,-1.613037 6.45282,-1.657569 22.28706,-1.687059 17.21126,-0.03205 19.05565,0.169344 28.55789,3.118367 7.09318,2.201375 20.54152,8.998574 26.5878,13.438286 6.77443,4.97439 17.9768,16.40514 23.00895,23.47803 7.53861,10.59583 13.74421,24.48522 16.41272,36.73503 0.66326,3.04471 1.09436,8.93647 1.32222,18.07059 0.30713,12.3115 0.21694,14.18494 -0.98455,20.45253 -3.22735,16.83554 -10.69577,33.46617 -20.57051,45.80629 -5.98715,7.48195 -30.1376,32.38037 -127.12609,131.06342 -46.36725,47.17736 -55.57627,56.26836 -56.99885,56.26836 -0.347,0 -2.07882,-1.181 -3.84849,-2.62442 z"
     id="path862" />
</svg>
