<?xml version="1.0" encoding="UTF-8" standalone="no"?>
<svg
   xmlns:dc="http://purl.org/dc/elements/1.1/"
   xmlns:cc="http://creativecommons.org/ns#"
   xmlns:rdf="http://www.w3.org/1999/02/22-rdf-syntax-ns#"
   xmlns:svg="http://www.w3.org/2000/svg"
   xmlns="http://www.w3.org/2000/svg"
   xmlns:sodipodi="http://sodipodi.sourceforge.net/DTD/sodipodi-0.dtd"
   xmlns:inkscape="http://www.inkscape.org/namespaces/inkscape"
   aria-hidden="true"
   focusable="false"
   data-prefix="fas"
   data-icon="list-ul"
   class="svg-inline--fa fa-list-ul fa-w-16"
   role="img"
   viewBox="0 0 512 512"
   version="1.1"
   id="svg4"
   sodipodi:docname="list-ul-solid.svg"
   inkscape:version="1.0.2 (e86c870879, 2021-01-15)">
  <metadata
     id="metadata10">
    <rdf:RDF>
      <cc:Work
         rdf:about="">
        <dc:format>image/svg+xml</dc:format>
        <dc:type
           rdf:resource="http://purl.org/dc/dcmitype/StillImage" />
      </cc:Work>
    </rdf:RDF>
  </metadata>
  <defs
     id="defs8" />
  <sodipodi:namedview
     pagecolor="#ffffff"
     bordercolor="#666666"
     borderopacity="1"
     objecttolerance="10"
     gridtolerance="10"
     guidetolerance="10"
     inkscape:pageopacity="0"
     inkscape:pageshadow="2"
     inkscape:window-width="1920"
     inkscape:window-height="1017"
     id="namedview6"
     showgrid="false"
     inkscape:zoom="1.6601562"
     inkscape:cx="256"
     inkscape:cy="256"
     inkscape:window-x="-8"
     inkscape:window-y="-8"
     inkscape:window-maximized="1"
     inkscape:current-layer="svg4"
     inkscape:document-rotation="0" />
  <path
     fill="currentColor"
     d="M48 48a48 48 0 1 0 48 48 48 48 0 0 0-48-48zm0 160a48 48 0 1 0 48 48 48 48 0 0 0-48-48zm0 160a48 48 0 1 0 48 48 48 48 0 0 0-48-48zm448 16H176a16 16 0 0 0-16 16v32a16 16 0 0 0 16 16h320a16 16 0 0 0 16-16v-32a16 16 0 0 0-16-16zm0-320H176a16 16 0 0 0-16 16v32a16 16 0 0 0 16 16h320a16 16 0 0 0 16-16V80a16 16 0 0 0-16-16zm0 160H176a16 16 0 0 0-16 16v32a16 16 0 0 0 16 16h320a16 16 0 0 0 16-16v-32a16 16 0 0 0-16-16z"
     id="path2" />
  <path
     style="fill:#999999;stroke:#f2f2f2;stroke-width:0"
     d="M 39.555999,462.85134 C 21.387593,459.56842 6.4565814,445.55043 1.8208467,427.42365 0.1519354,420.89782 0.15142701,410.95528 1.8196709,404.42577 7.1895986,383.40784 25.979349,368.67424 47.585882,368.53913 c 8.24263,-0.0516 13.750917,1.22804 21.628952,5.02447 5.488315,2.64482 6.958544,3.70772 11.806829,8.53576 6.204091,6.17818 9.650887,11.49994 11.984107,18.50315 3.957236,11.87771 3.391921,23.6324 -1.689082,35.12145 -4.96584,11.22866 -15.779485,21.05585 -27.65165,25.12921 -8.79783,3.01855 -15.423138,3.56765 -24.109039,1.99817 z"
     id="path835" />
  <path
     style="fill:#999999;stroke:#f2f2f2;stroke-width:0"
     d="M 38.550588,302.69041 C 16.164159,297.71676 0.60235294,278.64097 0.60235294,256.17314 c 0,-7.88962 1.21979226,-13.43085 4.48008666,-20.35196 5.9042134,-12.53376 16.8746764,-21.88853 30.1552074,-25.71405 4.027914,-1.16026 6.202915,-1.38481 13.251765,-1.36815 7.932309,0.0188 8.772656,0.13697 14.155294,1.99142 17.099246,5.89111 28.927891,19.51185 32.251555,37.13784 1.816184,9.63153 0.378813,19.48556 -4.217411,28.91294 -3.030847,6.2166 -7.860513,12.34503 -12.841701,16.295 -4.131996,3.27659 -12.908321,7.72128 -17.903031,9.06682 -5.021983,1.35289 -16.442168,1.64524 -21.38353,0.54741 z"
     id="path837" />
  <path
     style="fill:#999999;stroke:#f2f2f2;stroke-width:0"
     d="M 42.320723,143.29334 C 32.377765,142.14839 22.40319,137.32323 15.064438,130.10824 5.0535028,120.26611 0.63582262,109.75403 0.61281196,95.719884 0.5515764,58.372427 42.474042,35.61499 73.737885,56.024244 c 10.4423,6.816809 17.225926,16.385603 20.706972,29.208697 1.508557,5.557049 1.31534,16.781539 -0.3933,22.848329 -6.482083,23.01556 -28.354819,37.90386 -51.730834,35.21207 z"
     id="path839" />
  <path
     style="fill:#999999;stroke:#f2f2f2;stroke-width:0"
     d="m 170.49815,126.66038 c -3.89445,-1.37829 -8.14195,-5.86078 -9.32343,-9.83924 -1.34401,-4.52579 -1.39005,-36.81089 -0.0589,-41.293417 1.16505,-3.923143 4.61327,-7.876786 8.41302,-9.646153 l 3.04526,-1.418037 162.93647,-0.0025 c 110.40226,-0.0017 163.65986,0.198378 165.18008,0.620581 3.59925,0.999602 7.18118,4.150191 9.19484,8.087578 l 1.81331,3.545654 V 96.03273 c 0,18.44198 -0.058,19.44079 -1.27949,22.02848 -1.54303,3.26889 -4.42202,6.26178 -7.72393,8.0295 l -2.44128,1.30697 -163.53883,0.1053 c -147.40582,0.0949 -163.80303,0.0118 -166.21714,-0.84257 z"
     id="path841" />
  <path
     style="fill:#999999;stroke:#f2f2f2;stroke-width:0"
     d="m 172.70513,287.26996 c -4.60751,-1.09054 -8.46904,-4.16306 -10.8711,-8.64986 -1.26647,-2.36562 -1.30697,-3.06663 -1.30697,-22.6201 0,-19.66941 0.0336,-20.24169 1.33203,-22.66922 1.8021,-3.36926 4.72413,-6.18125 7.99768,-7.69651 l 2.71735,-1.2578 h 163.53882 c 150.80279,0 163.70956,0.0775 165.73112,0.99559 3.40447,1.54606 6.86062,5.03054 8.42746,8.4965 1.40447,3.10682 1.4273,3.46081 1.4273,22.13144 0,18.67063 -0.0228,19.02462 -1.4273,22.13144 -1.56684,3.46596 -5.02299,6.95044 -8.42746,8.4965 -2.01979,0.91725 -14.96568,1.0029 -164.52641,1.08844 -93.82974,0.0537 -163.2956,-0.13472 -164.61252,-0.44642 z"
     id="path843" />
  <path
     style="fill:#999999;stroke:#f2f2f2;stroke-width:0"
     d="m 169.52886,446.11843 c -1.68176,-0.78312 -4.04772,-2.58918 -5.28416,-4.03369 -3.71552,-4.34074 -4.01882,-6.31503 -4.01882,-26.16003 0,-20.78532 0.27099,-22.31425 4.7487,-26.79195 5.33565,-5.33565 -12.12443,-4.8602 172.05985,-4.68535 l 163.21969,0.15494 2.44128,1.30697 c 3.30191,1.76772 6.1809,4.76061 7.72393,8.0295 1.22148,2.58769 1.27949,3.5865 1.27949,22.02848 v 19.31788 l -1.81331,3.54565 c -2.01366,3.93739 -5.59559,7.08798 -9.19484,8.08758 -1.52022,0.42221 -54.77782,0.62229 -165.18008,0.62058 l -162.93647,-0.002 -3.04526,-1.41804 z"
     id="path845" />
  <path
     style="fill:#808080;stroke:#f2f2f2;stroke-width:0"
     d="m 38.669157,462.2893 c -14.553114,-3.15976 -26.44052,-12.49178 -32.9725574,-25.88459 -3.4572888,-7.08857 -4.6100449,-12.20965 -4.6100449,-20.48 0,-8.28059 1.1549269,-13.40145 4.6189284,-20.48 6.0620689,-12.3876 15.9897259,-20.69355 29.5545839,-24.7268 4.477662,-1.33134 6.631969,-1.61242 12.626986,-1.64748 8.802883,-0.0515 12.600543,0.85528 21.38353,5.10573 5.636264,2.72762 6.914801,3.66445 11.745882,8.60669 7.856153,8.03692 11.249092,14.26208 13.288039,24.38013 1.333387,6.61677 0.929467,16.02078 -0.945525,22.0135 -4.067684,13.00084 -13.994888,24.32771 -26.15313,29.84051 -8.644043,3.9194 -19.711272,5.18848 -28.536692,3.27231 z"
     id="path836" />
  <path
     style="fill:#808080;stroke:#f2f2f2;stroke-width:0"
     d="M 37.418101,302.03265 C 28.066562,299.51754 21.812706,295.87698 14.735415,288.82839 5.4056451,279.53645 1.217521,269.26196 1.2089183,255.64459 c -0.00763,-12.08463 4.0891944,-22.6267 12.1456227,-31.25345 4.97102,-5.32291 8.306294,-7.86317 14.22247,-10.83229 7.256243,-3.64166 12.734809,-4.7211 22.358589,-4.40532 7.312298,0.23994 8.725479,0.46901 13.167196,2.13433 15.088116,5.65696 25.421866,16.50584 30.253436,31.76155 2.043922,6.45369 2.347978,16.58461 0.696464,23.2058 -2.523539,10.11726 -9.361022,21.04916 -16.671425,26.65458 -4.456364,3.41701 -14.433684,8.17139 -19.254218,9.17499 -5.372219,1.11845 -16.460347,1.09054 -20.708952,-0.0521 z"
     id="path838" />
  <path
     style="fill:#808080;stroke:#f2f2f2;stroke-width:0"
     d="M 39.152935,142.46575 C 24.206492,139.09802 11.778257,129.35642 5.3281489,115.95294 2.3466118,109.75723 1.2256162,104.32577 1.2256162,96.075289 c 0,-8.298951 1.1204578,-13.675924 4.1788571,-20.05395 C 11.427758,63.460303 21.534725,54.907783 35.560046,50.503682 c 6.493404,-2.038998 18.725991,-2.043458 25.277595,-0.0092 19.258911,5.979803 32.963272,22.839739 34.158629,42.024011 1.413144,22.679597 -12.92238,42.846667 -34.864206,49.046637 -5.861013,1.65611 -15.743368,2.08036 -20.979129,0.90064 z"
     id="path840" />
  <path
     style="fill:#808080;stroke:#f2f2f2;stroke-width:0"
     d="m 172.80251,126.54516 c -5.83155,-0.81781 -10.89285,-6.23638 -11.76596,-12.5965 -0.74643,-5.43726 -0.49627,-34.950855 0.32104,-37.876278 1.06203,-3.801368 4.14708,-7.439348 8.22309,-9.696907 l 3.59579,-1.991578 163.53883,0.382598 c 148.49043,0.347393 163.72746,0.471719 165.58887,1.351118 2.85942,1.350893 5.80783,4.459582 7.61836,8.032498 l 1.53653,3.032202 -0.18129,19.385312 c -0.17374,18.577975 -0.23592,19.487365 -1.49296,21.835815 -1.44326,2.69632 -5.13816,6.29676 -7.95891,7.75542 -1.62893,0.84236 -18.29262,0.92943 -164.02657,0.85713 -89.2174,-0.0443 -163.46597,-0.25614 -164.99682,-0.47083 z"
     id="path842" />
  <path
     style="fill:#808080;stroke:#f2f2f2;stroke-width:0"
     d="m 172.57412,286.76868 c -4.65225,-1.15721 -9.97321,-6.0393 -11.13304,-10.21479 -0.8042,-2.8952 -0.79753,-38.23655 0.008,-41.13591 0.8264,-2.97535 5.36163,-7.89571 8.7425,-9.4849 l 2.75047,-1.29288 163.65616,0.16931 163.65615,0.16931 2.80424,1.6485 c 3.49457,2.05431 6.40361,5.66416 7.49982,9.30656 1.2364,4.10828 1.19926,36.10971 -0.0468,40.2862 -1.10566,3.70605 -3.78046,6.99369 -7.44047,9.14522 l -2.81684,1.65588 -162.93648,0.0985 c -89.61506,0.0542 -163.74965,-0.10378 -164.74353,-0.35099 z"
     id="path844" />
  <path
     style="fill:#808080;stroke:#f2f2f2;stroke-width:0"
     d="m 169.56235,445.5799 c -4.07193,-2.31449 -7.18274,-5.95194 -8.14436,-9.52315 -0.87746,-3.25864 -0.88583,-36.97438 -0.01,-40.22701 0.72216,-2.68191 3.65887,-6.84841 6.10353,-8.65947 1.13186,-0.83851 3.20988,-1.30519 7.52941,-1.69095 3.28136,-0.29305 77.74239,-0.54248 165.46897,-0.5543 143.20589,-0.0193 159.68811,0.0743 161.31598,0.91612 2.82075,1.45866 6.51565,5.0591 7.95891,7.75542 1.25706,2.34848 1.31922,3.25774 1.49298,21.84015 0.17727,18.95632 0.15177,19.44767 -1.14102,21.98589 -2.10928,4.14125 -3.95169,6.20697 -7.01886,7.86958 l -2.86378,1.55235 -163.53883,0.39482 -163.53883,0.39482 z"
     id="path846" />
</svg>
