<?xml version="1.0" encoding="UTF-8" standalone="no"?>
<svg
   xmlns:dc="http://purl.org/dc/elements/1.1/"
   xmlns:cc="http://creativecommons.org/ns#"
   xmlns:rdf="http://www.w3.org/1999/02/22-rdf-syntax-ns#"
   xmlns:svg="http://www.w3.org/2000/svg"
   xmlns="http://www.w3.org/2000/svg"
   xmlns:sodipodi="http://sodipodi.sourceforge.net/DTD/sodipodi-0.dtd"
   xmlns:inkscape="http://www.inkscape.org/namespaces/inkscape"
   aria-hidden="true"
   focusable="false"
   data-prefix="fas"
   data-icon="mobile-alt"
   class="svg-inline--fa fa-mobile-alt fa-w-10"
   role="img"
   viewBox="0 0 320 512"
   version="1.1"
   id="svg4"
   sodipodi:docname="mobile-alt-solid.svg"
   inkscape:version="1.0.2 (e86c870879, 2021-01-15)">
  <metadata
     id="metadata10">
    <rdf:RDF>
      <cc:Work
         rdf:about="">
        <dc:format>image/svg+xml</dc:format>
        <dc:type
           rdf:resource="http://purl.org/dc/dcmitype/StillImage" />
      </cc:Work>
    </rdf:RDF>
  </metadata>
  <defs
     id="defs8" />
  <sodipodi:namedview
     pagecolor="#ffffff"
     bordercolor="#666666"
     borderopacity="1"
     objecttolerance="10"
     gridtolerance="10"
     guidetolerance="10"
     inkscape:pageopacity="0"
     inkscape:pageshadow="2"
     inkscape:window-width="1920"
     inkscape:window-height="1017"
     id="namedview6"
     showgrid="false"
     inkscape:zoom="1.6601562"
     inkscape:cx="160"
     inkscape:cy="328.28236"
     inkscape:window-x="-8"
     inkscape:window-y="-8"
     inkscape:window-maximized="1"
     inkscape:current-layer="svg4"
     inkscape:document-rotation="0" />
  <path
     fill="currentColor"
     d="M272 0H48C21.5 0 0 21.5 0 48v416c0 26.5 21.5 48 48 48h224c26.5 0 48-21.5 48-48V48c0-26.5-21.5-48-48-48zM160 480c-17.7 0-32-14.3-32-32s14.3-32 32-32 32 14.3 32 32-14.3 32-32 32zm112-108c0 6.6-5.4 12-12 12H60c-6.6 0-12-5.4-12-12V60c0-6.6 5.4-12 12-12h200c6.6 0 12 5.4 12 12v312z"
     id="path2" />
  <path
     style="fill:#999999;stroke:#f2f2f2;stroke-width:0"
     d="M 44.950588,511.59339 C 35.831616,510.87899 24.147407,506.20923 17.844706,500.76014 10.07992,494.04697 4.340443,485.15997 1.7627288,475.85882 0.7268205,472.12096 0.67764706,462.15746 0.67764706,256 0.67764706,49.842538 0.7268205,39.879038 1.7627288,36.141176 3.3897553,30.270386 7.786025,21.841861 11.358681,17.743824 16.424576,11.932957 20.728603,8.5849943 27.181176,5.4360197 38.618787,-0.1457459 27.058608,0.30117647 160,0.30117647 c 132.24538,0 121.24301,-0.39722781 132.21647,4.77352173 12.45297,5.8678988 21.92877,17.0758708 26.01058,30.7653018 1.02505,3.437749 1.08612,14.078653 1.25138,218.05176 0.1568,193.54185 0.0809,214.90033 -0.77864,219.1858 -3.03029,15.10777 -12.81796,27.52505 -26.81882,34.02411 -10.65298,4.945 0.73398,4.53633 -128.86921,4.62508 -63.442819,0.0434 -116.570348,-0.0166 -118.061172,-0.13336 z M 169.99437,478.56992 c 7.63192,-2.56195 12.83101,-6.55553 17.19608,-13.20883 3.29584,-5.02358 4.81127,-10.28102 4.874,-16.90933 0.14873,-15.71751 -10.15081,-28.73823 -25.26578,-31.94106 -7.49373,-1.5879 -14.57681,-0.66411 -21.66557,2.82567 -7.47858,3.6817 -13.64855,11.33118 -16.19636,20.0801 -1.45954,5.01189 -1.32984,13.24348 0.29015,18.41521 2.17234,6.93509 7.56935,13.82913 13.90723,17.76484 7.42436,4.6104 18.37316,5.82242 26.86025,2.9734 z m 94.67558,-95.20102 c 2.83984,-1.18657 4.77254,-2.99456 6.22161,-5.8202 1.11803,-2.18011 1.14609,-6.13658 1.14609,-161.60517 0,-157.935315 -0.0108,-159.391511 -1.19915,-161.720866 -1.34316,-2.632807 -4.1046,-4.923872 -7.17309,-5.951242 -2.92702,-0.980005 -204.403796,-0.980005 -207.330819,0 -3.068491,1.02737 -5.829935,3.318435 -7.173092,5.951242 -1.188348,2.329355 -1.199146,3.785551 -1.199146,161.720866 0,155.46859 0.02806,159.42506 1.146086,161.60517 1.420501,2.76993 3.349772,4.60616 6.08645,5.79294 1.851288,0.80282 14.420811,0.91522 104.673871,0.93596 91.25158,0.021 102.81615,-0.0793 104.80119,-0.9087 z"
     id="path835" />
  <path
     style="fill:#808080;stroke:#f2f2f2;stroke-width:0"
     d="M 40.131761,510.4984 C 21.818678,506.65912 7.7324604,494.05768 2.3855622,476.73087 1.3216994,473.28339 1.2799952,464.94563 1.2799952,255.69883 V 38.24941 L 2.6835747,34.334116 C 5.6159835,26.154142 8.7883393,21.106558 14.832937,15.003078 20.017385,9.7681271 21.206438,8.9045643 27.482349,5.8163118 32.458263,3.3677622 35.681894,2.1958096 38.927055,1.6555843 45.305766,0.5937136 274.37723,0.5587573 281.07294,1.6186328 c 6.55246,1.037199 16.63213,6.2206426 22.29876,11.4670732 6.50361,6.021345 11.31367,13.417605 14.21035,21.850763 1.10748,3.224199 1.13795,9.129597 1.13795,220.461181 v 217.14824 l -1.41133,4.51765 c -2.61058,8.3564 -5.7817,13.56862 -12.11565,19.91389 -5.0293,5.03829 -6.58425,6.18441 -12.43144,9.16289 -3.69046,1.87987 -8.27588,3.72125 -10.24,4.1121 -5.64822,1.12399 -237.081524,1.35885 -242.389819,0.24598 z M 166.62726,479.62354 c 6e-4,-0.24847 0.81915,-0.48089 1.81867,-0.51649 3.22959,-0.11503 10.84717,-4.36565 14.50877,-8.09592 6.44877,-6.5697 9.19723,-13.39063 9.21155,-22.86053 0.028,-18.4895 -13.85388,-32.52706 -32.16625,-32.52706 -14.18365,0 -26.19158,8.63899 -30.81888,22.17235 -1.89785,5.55058 -1.8898,15.56304 0.0168,20.89589 3.57373,9.99587 14.46586,19.9956 22.20059,20.38166 1.08361,0.0541 1.97143,0.30163 1.97291,0.5501 0.001,0.24847 2.98435,0.45177 6.62859,0.45177 3.64423,0 6.6265,-0.2033 6.62725,-0.45177 z m 100.46828,-97.27743 c 1.37451,-0.90965 2.98102,-2.536 3.57002,-3.61412 1.01876,-1.86474 1.07091,-9.79876 1.07091,-162.89487 V 54.902475 l -1.24367,-1.665783 c -0.68403,-0.91618 -2.26754,-2.494649 -3.51893,-3.507708 l -2.27525,-1.841926 -52.3493,-0.399518 c -28.79213,-0.219734 -75.86367,-0.219734 -104.60344,0 l -52.254118,0.399518 -2.310967,1.596887 c -2.792721,1.929783 -4.06926,3.656685 -4.55346,6.159923 -0.200095,1.03446 -0.363809,73.711432 -0.363809,161.504372 v 159.62353 l 1.365902,2.1965 c 1.623844,2.61129 3.880042,4.20594 6.765863,4.78203 1.159529,0.23146 48.479139,0.38234 105.154689,0.33528 l 103.04645,-0.0856 z"
     id="path831" />
</svg>
