<?xml version="1.0" encoding="UTF-8" standalone="no"?>
<svg
   xmlns:dc="http://purl.org/dc/elements/1.1/"
   xmlns:cc="http://creativecommons.org/ns#"
   xmlns:rdf="http://www.w3.org/1999/02/22-rdf-syntax-ns#"
   xmlns:svg="http://www.w3.org/2000/svg"
   xmlns="http://www.w3.org/2000/svg"
   xmlns:sodipodi="http://sodipodi.sourceforge.net/DTD/sodipodi-0.dtd"
   xmlns:inkscape="http://www.inkscape.org/namespaces/inkscape"
   width="196"
   height="34"
   viewBox="0 0 196 34"
   fill="none"
   version="1.1"
   id="svg18"
   sodipodi:docname="ohmyfood@2x.svg"
   inkscape:version="1.0.2 (e86c870879, 2021-01-15)">
  <metadata
     id="metadata24">
    <rdf:RDF>
      <cc:Work
         rdf:about="">
        <dc:format>image/svg+xml</dc:format>
        <dc:type
           rdf:resource="http://purl.org/dc/dcmitype/StillImage" />
      </cc:Work>
    </rdf:RDF>
  </metadata>
  <defs
     id="defs22" />
  <sodipodi:namedview
     pagecolor="#ffffff"
     bordercolor="#666666"
     borderopacity="1"
     objecttolerance="10"
     gridtolerance="10"
     guidetolerance="10"
     inkscape:pageopacity="0"
     inkscape:pageshadow="2"
     inkscape:window-width="1920"
     inkscape:window-height="1017"
     id="namedview20"
     showgrid="false"
     inkscape:zoom="6.6479592"
     inkscape:cx="98"
     inkscape:cy="17"
     inkscape:window-x="-8"
     inkscape:window-y="-8"
     inkscape:window-maximized="1"
     inkscape:current-layer="svg18" />
  <path
     d="M13.932 7.956C17.196 7.956 19.596 8.61599 21.132 9.936C22.692 11.256 23.472 12.984 23.472 15.12C23.472 15.84 23.376 16.644 23.184 17.532C22.728 19.5 21.876 21.228 20.628 22.716C19.38 24.18 17.844 25.32 16.02 26.136C14.22 26.928 12.264 27.324 10.152 27.324C6.81599 27.324 4.34399 26.664 2.73599 25.344C1.15199 24 0.359985 22.224 0.359985 20.016C0.359985 19.272 0.455985 18.444 0.647985 17.532C1.10399 15.66 1.96799 14.004 3.23999 12.564C4.53599 11.1 6.10799 9.972 7.95599 9.18C9.82799 8.364 11.82 7.956 13.932 7.956ZM13.824 11.16C13.32 11.16 12.78 11.616 12.204 12.528C11.652 13.416 10.992 15.108 10.224 17.604C9.45599 20.1 9.07199 21.852 9.07199 22.86C9.07199 23.388 9.15599 23.748 9.32399 23.94C9.49199 24.108 9.71999 24.192 10.008 24.192C10.512 24.24 11.028 23.808 11.556 22.896C12.108 21.984 12.792 20.208 13.608 17.568C14.352 15.24 14.724 13.548 14.724 12.492C14.724 11.988 14.64 11.64 14.472 11.448C14.328 11.256 14.112 11.16 13.824 11.16Z"
     fill="#101010"
     id="path2" />
  <path
     d="M44.9899 22.032C44.9419 22.128 44.9179 22.272 44.9179 22.464C44.9179 22.632 44.9539 22.764 45.0259 22.86C45.1219 22.956 45.2419 23.004 45.3859 23.004C45.6739 23.004 45.9139 22.884 46.1059 22.644C46.3219 22.38 46.4659 22.248 46.5379 22.248C46.6579 22.248 46.7539 22.332 46.8259 22.5C46.8979 22.644 46.9339 22.824 46.9339 23.04C46.9579 23.736 46.7299 24.42 46.2499 25.092C45.7699 25.74 45.0619 26.28 44.1259 26.712C43.2139 27.12 42.1099 27.324 40.8139 27.324C39.2299 27.324 37.9699 26.964 37.0339 26.244C36.0979 25.5 35.6179 24.516 35.5939 23.292C35.5939 22.404 35.8099 21.408 36.2419 20.304L38.2219 15.12C38.3419 14.808 38.4019 14.556 38.4019 14.364C38.4019 14.052 38.2939 13.812 38.0779 13.644C37.8859 13.452 37.6459 13.356 37.3579 13.356C36.9019 13.356 36.4339 13.572 35.9539 14.004C35.4979 14.412 35.1259 15.084 34.8379 16.02V15.948L32.5699 23.256C32.4979 23.544 32.4619 23.796 32.4619 24.012C32.4619 24.324 32.5219 24.576 32.6419 24.768C32.7619 24.936 32.9299 25.104 33.1459 25.272C33.3139 25.44 33.4339 25.584 33.5059 25.704C33.5779 25.8 33.5899 25.932 33.5419 26.1C33.4219 26.412 33.1819 26.64 32.8219 26.784C32.4619 26.928 31.9099 27 31.1659 27H22.9579C22.3339 27 21.8779 26.904 21.5899 26.712C21.3019 26.496 21.2059 26.22 21.3019 25.884C21.3979 25.596 21.6499 25.344 22.0579 25.128C22.4179 24.936 22.7179 24.708 22.9579 24.444C23.1979 24.18 23.4019 23.76 23.5699 23.184L29.0419 5.22C29.1139 5.004 29.1499 4.824 29.1499 4.68C29.1499 4.416 29.0779 4.2 28.9339 4.032C28.8139 3.864 28.6459 3.696 28.4299 3.528C28.1899 3.336 28.0099 3.168 27.8899 3.024C27.7939 2.88 27.7819 2.688 27.8539 2.448C27.9979 1.896 28.7539 1.416 30.1219 1.00799C31.4899 0.599996 32.9179 0.395996 34.4059 0.395996C35.7979 0.395996 36.8179 0.659996 37.4659 1.188C38.1379 1.716 38.4739 2.436 38.4739 3.348C38.4739 3.876 38.3899 4.392 38.2219 4.896L36.2779 11.232C37.2139 10.008 38.1979 9.156 39.2299 8.676C40.2859 8.196 41.4259 7.956 42.6499 7.956C44.1139 7.956 45.2899 8.4 46.1779 9.288C47.0899 10.176 47.5459 11.328 47.5459 12.744C47.5459 13.488 47.4259 14.22 47.1859 14.94L44.9899 22.032Z"
     fill="#101010"
     id="path4" />
  <path
     d="M82.7165 22.032C82.6685 22.128 82.6445 22.272 82.6445 22.464C82.6445 22.632 82.6805 22.764 82.7525 22.86C82.8485 22.956 82.9685 23.004 83.1125 23.004C83.4005 23.004 83.6405 22.884 83.8325 22.644C84.0485 22.38 84.1925 22.248 84.2645 22.248C84.3845 22.248 84.4805 22.332 84.5525 22.5C84.6245 22.644 84.6605 22.824 84.6605 23.04C84.6845 23.736 84.4565 24.42 83.9765 25.092C83.4965 25.74 82.7885 26.28 81.8525 26.712C80.9405 27.12 79.8365 27.324 78.5405 27.324C76.9565 27.324 75.6965 26.964 74.7605 26.244C73.8245 25.5 73.3445 24.516 73.3205 23.292C73.3205 22.404 73.5365 21.408 73.9685 20.304L75.9485 15.12C76.0685 14.808 76.1285 14.556 76.1285 14.364C76.1285 14.052 76.0205 13.812 75.8045 13.644C75.6125 13.452 75.3725 13.356 75.0845 13.356C74.6765 13.356 74.2565 13.536 73.8245 13.896C73.3925 14.256 73.0085 14.82 72.6725 15.588L70.6925 22.032C70.6445 22.128 70.6205 22.272 70.6205 22.464C70.6205 22.632 70.6565 22.764 70.7285 22.86C70.8245 22.956 70.9445 23.004 71.0885 23.004C71.3765 23.004 71.6165 22.884 71.8085 22.644C72.0245 22.38 72.1685 22.248 72.2405 22.248C72.3605 22.248 72.4565 22.332 72.5285 22.5C72.6005 22.644 72.6365 22.824 72.6365 23.04C72.6605 23.736 72.4325 24.42 71.9525 25.092C71.4725 25.74 70.7645 26.28 69.8285 26.712C68.9165 27.12 67.8125 27.324 66.5165 27.324C64.9325 27.324 63.6725 26.964 62.7365 26.244C61.8005 25.5 61.3205 24.516 61.2965 23.292C61.2965 22.404 61.5125 21.408 61.9445 20.304L63.9245 15.12C64.0445 14.808 64.1045 14.556 64.1045 14.364C64.1045 14.052 63.9965 13.812 63.7805 13.644C63.5885 13.452 63.3485 13.356 63.0605 13.356C62.6525 13.356 62.2325 13.536 61.8005 13.896C61.3685 14.232 61.0085 14.784 60.7205 15.552L58.3445 23.256C58.2485 23.52 58.2005 23.772 58.2005 24.012C58.2005 24.3 58.2605 24.54 58.3805 24.732C58.5005 24.9 58.6685 25.08 58.8845 25.272C59.0525 25.416 59.1725 25.548 59.2445 25.668C59.3165 25.788 59.3285 25.932 59.2805 26.1C59.1845 26.412 58.9565 26.64 58.5965 26.784C58.2365 26.928 57.6725 27 56.9045 27H48.6965C48.0725 27 47.6285 26.904 47.3645 26.712C47.0765 26.496 46.9685 26.22 47.0405 25.884C47.1365 25.596 47.3885 25.344 47.7965 25.128C48.1565 24.936 48.4565 24.708 48.6965 24.444C48.9365 24.18 49.1405 23.76 49.3085 23.184L52.5125 12.78C52.5605 12.66 52.5845 12.492 52.5845 12.276C52.5845 12.012 52.5245 11.808 52.4045 11.664C52.3085 11.52 52.1405 11.34 51.9005 11.124C51.6605 10.932 51.4925 10.764 51.3965 10.62C51.3005 10.476 51.2885 10.284 51.3605 10.044C51.5045 9.492 52.2605 9.012 53.6285 8.604C54.9965 8.172 56.4245 7.956 57.9125 7.956C59.0885 7.956 60.0125 8.28 60.6845 8.928C61.3805 9.576 61.7165 10.464 61.6925 11.592C62.6765 10.224 63.7085 9.276 64.7885 8.748C65.8925 8.22 67.0805 7.956 68.3525 7.956C69.7445 7.956 70.8725 8.364 71.7365 9.18C72.6245 9.972 73.1165 11.016 73.2125 12.312C74.2445 10.68 75.3485 9.552 76.5245 8.928C77.7005 8.28 78.9845 7.956 80.3765 7.956C81.8405 7.956 83.0165 8.4 83.9045 9.288C84.8165 10.176 85.2725 11.328 85.2725 12.744C85.2725 13.488 85.1525 14.22 84.9125 14.94L82.7165 22.032Z"
     fill="#101010"
     id="path6" />
  <path
     d="M104.932 7.956C105.988 7.956 106.828 8.388 107.452 9.252C108.1 10.092 108.424 11.244 108.424 12.708C108.424 13.98 108.196 15.348 107.74 16.812C106.852 19.764 105.424 22.548 103.456 25.164C101.512 27.78 99.2675 29.88 96.7235 31.464C94.2035 33.048 91.6836 33.84 89.1636 33.84C87.9156 33.84 86.8355 33.624 85.9235 33.192C85.0355 32.76 84.3635 32.184 83.9075 31.464C83.4275 30.744 83.1875 29.976 83.1875 29.16C83.1875 28.8 83.2475 28.404 83.3675 27.972C83.5835 27.3 83.9435 26.784 84.4475 26.424C84.9515 26.064 85.5516 25.884 86.2476 25.884C87.3516 25.884 88.2515 26.256 88.9475 27C89.6675 27.768 90.1236 28.812 90.3156 30.132C91.8516 30.06 93.2675 29.4 94.5635 28.152C93.3395 27.936 92.4275 27.528 91.8275 26.928C91.2515 26.304 90.8555 25.344 90.6395 24.048L89.1995 15.228C89.1275 14.772 89.0195 14.46 88.8755 14.292C88.7555 14.1 88.5876 14.004 88.3716 14.004C88.2036 14.004 87.9995 14.088 87.7595 14.256C87.5435 14.424 87.3875 14.508 87.2915 14.508C87.0995 14.508 87.0035 14.304 87.0035 13.896C87.0035 13.56 87.0635 13.2 87.1835 12.816C87.6155 11.448 88.4196 10.296 89.5956 9.36C90.7716 8.4 92.1395 7.92 93.6995 7.92C95.2355 7.92 96.3635 8.376 97.0835 9.288C97.8275 10.2 98.3076 11.604 98.5236 13.5L99.6035 21.42C99.6755 22.02 99.8915 22.32 100.252 22.32C100.684 22.32 101.188 21.936 101.764 21.168C102.34 20.376 102.904 19.26 103.456 17.82C102.736 17.172 102.184 16.428 101.8 15.588C101.416 14.748 101.224 13.848 101.224 12.888C101.224 12.144 101.32 11.472 101.512 10.872C101.8 9.912 102.244 9.192 102.844 8.712C103.468 8.208 104.164 7.956 104.932 7.956Z"
     fill="#101010"
     id="path8" />
  <path
     d="M122.864 0.395996C125.432 0.395996 127.352 0.791996 128.624 1.584C129.92 2.352 130.568 3.3 130.568 4.428C130.568 5.34 130.184 6.048 129.416 6.552C128.672 7.032 127.688 7.272 126.464 7.272C125.336 7.272 124.46 6.996 123.836 6.444C123.212 5.892 122.9 5.208 122.9 4.392C122.9 3.888 123.056 3.36 123.368 2.808C122.648 2.808 122.048 2.988 121.568 3.348C121.088 3.684 120.716 4.272 120.452 5.112C120.308 5.64 120.236 6.132 120.236 6.588C120.236 7.164 120.332 7.62 120.524 7.956C120.74 8.268 121.04 8.424 121.424 8.424H123.548C124.796 8.424 125.42 8.808 125.42 9.576C125.42 9.672 125.396 9.816 125.348 10.008C125.204 10.536 124.904 10.932 124.448 11.196C124.016 11.46 123.356 11.592 122.468 11.592H121.388L117.824 23.256C117.752 23.544 117.716 23.796 117.716 24.012C117.716 24.324 117.776 24.576 117.896 24.768C118.016 24.936 118.184 25.104 118.4 25.272C118.568 25.44 118.688 25.584 118.76 25.704C118.832 25.8 118.844 25.932 118.796 26.1C118.676 26.412 118.436 26.64 118.076 26.784C117.716 26.928 117.164 27 116.42 27H108.212C107.588 27 107.132 26.904 106.844 26.712C106.556 26.496 106.46 26.22 106.556 25.884C106.652 25.596 106.904 25.344 107.312 25.128C107.672 24.936 107.972 24.708 108.212 24.444C108.452 24.18 108.656 23.76 108.824 23.184L111.632 13.968C111.752 13.608 111.812 13.236 111.812 12.852C111.812 12.372 111.704 12 111.488 11.736C111.296 11.448 110.996 11.136 110.588 10.8C110.324 10.584 110.12 10.404 109.976 10.26C109.856 10.092 109.796 9.9 109.796 9.684C109.772 9.228 109.928 8.904 110.264 8.712C110.624 8.52 111.296 8.424 112.28 8.424H113.18C113.012 7.824 112.928 7.224 112.928 6.624C112.928 6.024 113.036 5.4 113.252 4.752C113.708 3.528 114.68 2.496 116.168 1.65599C117.68 0.815996 119.912 0.395996 122.864 0.395996Z"
     fill="#101010"
     id="path10" />
  <path
     d="M137.084 7.956C140.348 7.956 142.748 8.61599 144.284 9.936C145.844 11.256 146.624 12.984 146.624 15.12C146.624 15.84 146.528 16.644 146.336 17.532C145.88 19.5 145.028 21.228 143.78 22.716C142.532 24.18 140.996 25.32 139.172 26.136C137.372 26.928 135.416 27.324 133.304 27.324C129.968 27.324 127.496 26.664 125.888 25.344C124.304 24 123.512 22.224 123.512 20.016C123.512 19.272 123.608 18.444 123.8 17.532C124.256 15.66 125.12 14.004 126.392 12.564C127.688 11.1 129.26 9.972 131.108 9.18C132.98 8.364 134.972 7.956 137.084 7.956ZM136.976 11.16C136.472 11.16 135.932 11.616 135.356 12.528C134.804 13.416 134.144 15.108 133.376 17.604C132.608 20.1 132.224 21.852 132.224 22.86C132.224 23.388 132.308 23.748 132.476 23.94C132.644 24.108 132.872 24.192 133.16 24.192C133.664 24.24 134.18 23.808 134.708 22.896C135.26 21.984 135.944 20.208 136.76 17.568C137.504 15.24 137.876 13.548 137.876 12.492C137.876 11.988 137.792 11.64 137.624 11.448C137.48 11.256 137.264 11.16 136.976 11.16Z"
     fill="#101010"
     id="path12" />
  <path
     d="M160.709 7.956C163.973 7.956 166.373 8.61599 167.909 9.936C169.469 11.256 170.249 12.984 170.249 15.12C170.249 15.84 170.153 16.644 169.961 17.532C169.505 19.5 168.653 21.228 167.405 22.716C166.157 24.18 164.621 25.32 162.797 26.136C160.997 26.928 159.041 27.324 156.929 27.324C153.593 27.324 151.121 26.664 149.513 25.344C147.929 24 147.137 22.224 147.137 20.016C147.137 19.272 147.233 18.444 147.425 17.532C147.881 15.66 148.745 14.004 150.017 12.564C151.313 11.1 152.885 9.972 154.733 9.18C156.605 8.364 158.597 7.956 160.709 7.956ZM160.601 11.16C160.097 11.16 159.557 11.616 158.981 12.528C158.429 13.416 157.769 15.108 157.001 17.604C156.233 20.1 155.849 21.852 155.849 22.86C155.849 23.388 155.933 23.748 156.101 23.94C156.269 24.108 156.497 24.192 156.785 24.192C157.289 24.24 157.805 23.808 158.333 22.896C158.885 21.984 159.569 20.208 160.385 17.568C161.129 15.24 161.501 13.548 161.501 12.492C161.501 11.988 161.417 11.64 161.249 11.448C161.105 11.256 160.889 11.16 160.601 11.16Z"
     fill="#101010"
     id="path14" />
  <path
     d="M190.526 21.816C190.478 22.008 190.454 22.14 190.454 22.212C190.454 22.38 190.502 22.512 190.598 22.608C190.694 22.704 190.814 22.752 190.958 22.752C191.246 22.752 191.486 22.632 191.678 22.392C191.894 22.128 192.038 21.996 192.11 21.996C192.23 21.996 192.326 22.08 192.398 22.248C192.47 22.416 192.506 22.608 192.506 22.824C192.53 23.472 192.278 24.132 191.75 24.804C191.246 25.476 190.562 26.028 189.698 26.46C188.834 26.892 187.898 27.108 186.89 27.108C185.69 27.108 184.646 26.88 183.758 26.424C182.87 25.968 182.258 25.368 181.922 24.624C181.274 25.464 180.53 26.088 179.69 26.496C178.85 26.904 177.962 27.108 177.026 27.108C175.922 27.108 174.89 26.832 173.93 26.28C172.994 25.728 172.238 24.948 171.662 23.94C171.11 22.908 170.834 21.744 170.834 20.448C170.834 18.264 171.242 16.212 172.058 14.292C172.898 12.348 174.062 10.788 175.55 9.612C177.038 8.412 178.73 7.812 180.626 7.812C181.658 7.812 182.534 7.932 183.254 8.172C183.998 8.412 184.67 8.772 185.27 9.252L186.494 5.22C186.566 5.004 186.602 4.824 186.602 4.68C186.602 4.416 186.53 4.2 186.386 4.032C186.266 3.864 186.098 3.696 185.882 3.528C185.642 3.336 185.462 3.168 185.342 3.024C185.246 2.88 185.234 2.688 185.306 2.448C185.45 1.896 186.206 1.416 187.574 1.00799C188.942 0.599996 190.37 0.395996 191.858 0.395996C193.25 0.395996 194.27 0.659996 194.918 1.188C195.59 1.716 195.926 2.436 195.926 3.348C195.926 3.876 195.842 4.392 195.674 4.896L190.526 21.816ZM184.514 11.7C184.13 11.364 183.71 11.196 183.254 11.196C182.558 11.196 181.874 11.712 181.202 12.744C180.53 13.776 179.99 15.024 179.582 16.488C179.174 17.952 178.982 19.272 179.006 20.448C179.006 21.768 179.438 22.428 180.302 22.428C180.614 22.428 180.878 22.308 181.094 22.068C181.31 21.804 181.514 21.384 181.706 20.808L184.514 11.7Z"
     fill="#101010"
     id="path16" />
  <path
     style="fill:#ffffff;stroke:#f2f2f2;stroke-width:0"
     d="m 38.884114,27.023091 c -2.048155,-0.596094 -3.150642,-1.917695 -3.153776,-3.780574 -0.002,-1.177754 0.179983,-1.813152 1.554107,-5.42679 0.631621,-1.661019 1.148402,-3.229898 1.148402,-3.486396 0,-0.635465 -0.640354,-1.14984 -1.273753,-1.023161 -0.860557,0.172112 -1.537871,0.769796 -2.007669,1.771635 -0.632072,1.347886 -2.735462,8.254788 -2.735462,8.982435 0,0.492391 0.107385,0.729283 0.555365,1.225143 0.635622,0.703558 0.59014,0.940059 -0.265785,1.382048 -0.468214,0.24178 -0.986409,0.262362 -5.680603,0.225634 l -5.165391,-0.04042 -0.285227,-0.352418 c -0.36865,-0.455492 -0.225134,-0.728124 0.753338,-1.431086 0.412186,-0.296127 0.845953,-0.726725 0.963926,-0.956886 0.117974,-0.230161 1.512114,-4.680764 3.098088,-9.89023 C 28.354012,7.7697499 29.243721,4.6325644 29.180591,4.3810353 29.129622,4.177955 28.82138,3.7681573 28.49561,3.4703741 28.169839,3.1725908 27.9033,2.8270353 27.9033,2.7024728 c 0,-1.1007169 2.944864,-2.13163105 6.167306,-2.15900066 1.99411,-0.0169368 2.622999,0.14981833 3.477937,0.92220306 0.669443,0.6048019 0.957712,1.437691 0.817401,2.3616955 -0.05114,0.336811 -0.56016,2.1342959 -1.131146,3.9944106 -0.570984,1.8601148 -1.016797,3.4033817 -0.990698,3.4294827 0.0261,0.0261 0.444635,-0.36902 0.930074,-0.878046 1.319618,-1.3837341 2.429043,-1.9498177 4.429634,-2.2602202 1.161545,-0.1802197 2.556071,0.00853 3.456365,0.4678302 0.86004,0.438759 1.858861,1.652157 2.167369,2.632984 0.448213,1.424988 0.280572,2.468448 -1.110855,6.914354 -0.681115,2.176307 -1.205486,4.111129 -1.182244,4.362241 0.03446,0.372347 0.116849,0.459855 0.471093,0.500374 0.284286,0.03252 0.547317,-0.06174 0.77858,-0.278998 0.501183,-0.470836 0.721106,-0.25503 0.636579,0.624662 -0.139381,1.450555 -1.521986,2.906288 -3.345187,3.522119 -0.991915,0.335043 -3.675143,0.431194 -4.591394,0.164527 z"
     id="path849" />
  <path
     style="fill:#ffffff;stroke:#f2f2f2;stroke-width:0"
     d="M 7.3765372,27.071058 C 3.3800051,26.445682 0.94352979,24.29645 0.53253483,21.033912 0.22153385,18.565141 0.958861,15.844395 2.5366734,13.638617 5.3116105,9.7592617 10.389887,7.597654 15.516572,8.1136236 c 2.938811,0.2957734 4.658495,0.9687044 6.00807,2.3510224 1.517034,1.553841 2.0961,3.555638 1.740335,6.016233 -0.725463,5.017551 -4.33524,8.965206 -9.426144,10.308441 -1.378314,0.363668 -4.944989,0.519164 -6.4622958,0.281738 z M 11.01095,23.731389 c 0.255863,-0.268879 0.672392,-0.904279 0.925618,-1.411999 1.033997,-2.073167 2.656607,-7.434379 2.806264,-9.272084 0.114357,-1.404242 -0.07954,-1.819532 -0.880531,-1.885879 -0.493072,-0.04084 -0.642891,0.02858 -1.094076,0.506976 -0.685456,0.726796 -1.259712,1.88756 -2.015302,4.073604 -0.984275,2.847666 -1.6910354,5.704122 -1.7104546,6.913006 -0.020457,1.273474 0.1565392,1.565248 0.949512,1.565248 0.4290486,0 0.6585316,-0.1101 1.0189696,-0.488872 z"
     id="path851" />
  <path
     style="fill:#ffffff;stroke:#f2f2f2;stroke-width:0"
     d="m 64.668019,27.05809 c -1.024343,-0.230447 -2.179728,-1.023164 -2.684904,-1.842133 -0.360718,-0.584777 -0.464774,-0.944986 -0.51141,-1.770322 -0.07512,-1.329432 0.04248,-1.768667 1.485417,-5.548207 0.658848,-1.725741 1.197905,-3.339478 1.197905,-3.586084 0,-0.477531 -0.578851,-1.074804 -1.035635,-1.068593 -0.606568,0.0082 -1.532282,0.604874 -1.942746,1.252108 -0.455976,0.719001 -3.045685,8.89267 -3.041099,9.598354 0.0015,0.233357 0.22149,0.661427 0.529073,1.029581 0.572397,0.685115 0.602126,0.78096 0.374285,1.206684 -0.27513,0.514086 -1.123153,0.596677 -6.1354,0.597541 -4.062056,7.53e-4 -4.93134,-0.03678 -5.302379,-0.228656 -0.716027,-0.370272 -0.600078,-0.848939 0.381245,-1.573885 0.453772,-0.335221 0.923634,-0.800151 1.044136,-1.033177 0.373127,-0.721549 3.599422,-11.349414 3.602901,-11.868461 0.0025,-0.379784 -0.147012,-0.643272 -0.664302,-1.170352 -0.651882,-0.664219 -0.662188,-0.689847 -0.438083,-1.0893023 0.77137,-1.3749198 6.225872,-2.4450256 8.115341,-1.5921292 1.139295,0.514272 1.951758,1.7094095 1.954648,2.8752985 4.67e-4,0.186147 0.03488,0.338449 0.07648,0.338449 0.0416,0 0.545937,-0.495098 1.120742,-1.100219 0.574805,-0.60512 1.369968,-1.2760403 1.767029,-1.4909336 1.702314,-0.9213093 4.017889,-1.1900965 5.605832,-0.6507133 1.445075,0.4908549 2.543376,1.8407569 2.943597,3.6179219 l 0.101625,0.451266 0.322467,-0.435942 c 1.56229,-2.1120517 2.725515,-3.033715 4.51623,-3.5783685 1.345423,-0.4092159 3.023155,-0.437718 4.105103,-0.06974 1.035525,0.3521897 2.041236,1.2641323 2.560685,2.3219395 0.36609,0.745504 0.420723,1.029259 0.411678,2.138166 -0.0095,1.169065 -0.121449,1.634716 -1.306485,5.436077 -0.751283,2.409974 -1.261148,4.290975 -1.213008,4.475059 0.111097,0.424835 0.777287,0.421894 1.32105,-0.0058 0.340917,-0.268164 0.435349,-0.287433 0.552936,-0.112816 0.368931,0.547858 -0.190298,2.102394 -1.061729,2.951377 -1.227144,1.195533 -3.160021,1.790472 -5.401739,1.662657 -2.862152,-0.163193 -4.579726,-1.652486 -4.566417,-3.959501 0.007,-1.220222 0.138917,-1.678414 1.546015,-5.37148 0.65433,-1.717354 1.189691,-3.320077 1.189691,-3.561607 0,-0.485455 -0.586211,-1.06267 -1.079233,-1.06267 -0.854571,0 -2.030875,1.098459 -2.496774,2.331543 -0.552167,1.461405 -1.989611,6.450255 -1.989611,6.905222 0,0.507463 0.02943,0.540672 0.479177,0.540672 0.288226,0 0.621069,-0.133301 0.835245,-0.334508 0.303428,-0.285057 0.37809,-0.301735 0.50504,-0.112816 0.190898,0.28408 0.05757,1.376057 -0.237745,1.947127 -0.566709,1.095893 -2.232461,2.208227 -3.807847,2.542752 -0.930772,0.197644 -2.847574,0.196951 -3.729028,-0.0014 z"
     id="path853" />
  <path
     style="fill:#ffffff;stroke:#f2f2f2;stroke-width:0"
     d="m 87.008559,33.491171 c -1.890065,-0.509615 -3.481139,-2.158124 -3.706808,-3.840616 -0.184506,-1.375593 0.610316,-2.959533 1.717161,-3.422003 0.741137,-0.309666 2.095104,-0.256975 2.855497,0.111125 1.063166,0.514671 2.026872,1.926188 2.244564,3.287564 0.109884,0.687173 0.06405,0.669479 1.142234,0.440948 0.961111,-0.203713 1.761538,-0.589018 2.708052,-1.303585 0.734906,-0.554813 0.796292,-0.78379 0.210126,-0.78379 -0.627003,0 -2.134418,-0.871639 -2.540385,-1.468937 -0.606842,-0.892847 -0.782347,-1.625359 -1.61224,-6.729068 -0.430488,-2.647429 -0.873707,-5.0335 -0.984931,-5.302379 -0.160773,-0.38866 -0.289442,-0.488872 -0.627698,-0.488872 -0.23401,0 -0.58328,0.110533 -0.776156,0.245629 -0.980409,0.686704 -0.621073,-1.426347 0.546303,-3.212502 1.389045,-2.1253222 4.158965,-3.3718262 6.51788,-2.93314 1.677835,0.3120261 2.684242,1.3182037 3.294931,3.294179 0.157927,0.510998 0.568978,3.015526 0.913448,5.565618 0.344469,2.550093 0.704214,4.805757 0.799433,5.012587 0.55291,1.201014 2.14368,-0.216977 3.34589,-2.982494 l 0.48287,-1.110756 -0.73949,-0.917702 c -1.32579,-1.645288 -1.79986,-3.786563 -1.27093,-5.740575 0.55113,-2.0360525 1.7359,-3.138171 3.37189,-3.1366701 1.02653,9.416e-4 1.61437,0.2827791 2.3275,1.1159119 1.77748,2.0765922 1.39779,6.1675692 -1.04582,11.2680642 -2.53145,5.283838 -6.945001,9.890816 -11.491166,11.994772 -2.409195,1.11497 -5.729857,1.563087 -7.682155,1.036691 z"
     id="path855" />
  <path
     style="fill:#ffffff;stroke:#f2f2f2;stroke-width:0"
     d="m 107.24574,26.788547 c -0.88633,-0.370321 -0.81852,-1.027598 0.16551,-1.604279 0.36674,-0.214926 0.79966,-0.577344 0.96203,-0.805373 0.46301,-0.650241 3.46555,-10.648813 3.46555,-11.540417 0,-0.835777 -0.25883,-1.272333 -1.31619,-2.219957 -0.69011,-0.618484 -0.84045,-1.2178256 -0.41277,-1.6455052 0.29637,-0.2963655 0.52727,-0.3536358 1.89965,-0.4711527 l 1.14842,-0.09834 -0.0779,-1.2482694 c -0.22947,-3.6779802 2.41801,-6.0171565 7.42696,-6.56208035 2.93919,-0.31975525 5.96763,0.0181309 7.63793,0.85217275 3.17338,1.5845769 3.07267,4.805112 -0.17415,5.569166 -2.35657,0.554557 -4.36849,-0.2303282 -4.86852,-1.8992964 -0.17718,-0.5913536 -0.0887,-1.3611455 0.24903,-2.1658502 0.10894,-0.2595876 0.0685,-0.2785769 -0.42356,-0.198732 -0.87251,0.1415897 -1.61234,0.5673066 -1.99598,1.1485472 -0.52049,0.7885702 -0.86655,2.2857128 -0.74038,3.2030876 0.16149,1.1741158 0.33173,1.2683302 2.44942,1.3555471 1.92575,0.079311 2.46563,0.2557574 2.66042,0.8694822 0.1273,0.4011028 -0.33537,1.3264014 -0.85185,1.7036024 -0.26615,0.194374 -0.86693,0.350434 -1.78684,0.464153 l -1.38588,0.171322 -1.78569,5.847914 c -1.11054,3.636899 -1.78568,6.095267 -1.78568,6.502141 0,0.5402 0.0946,0.758988 0.54299,1.255257 0.59804,0.661964 0.59106,0.895738 -0.0391,1.308957 -0.37701,0.24722 -0.88141,0.27491 -5.53609,0.303893 -2.81671,0.01754 -5.25903,-0.02566 -5.42736,-0.09599 z"
     id="path857" />
  <path
     style="fill:#ffffff;stroke:#f2f2f2;stroke-width:0"
     d="m 130.49709,27.052798 c -2.25376,-0.321828 -4.29032,-1.303128 -5.3088,-2.558003 -1.99861,-2.462498 -2.12092,-5.771022 -0.34657,-9.375071 2.35399,-4.781409 7.96427,-7.596919 13.94622,-6.9988921 2.8958,0.2894988 4.62427,1.0169486 6.04146,2.5426271 1.37229,1.477343 1.91252,3.324391 1.62593,5.559067 -0.71075,5.542159 -4.84712,9.774602 -10.54896,10.793986 -1.27053,0.227147 -3.94694,0.2451 -5.40928,0.03629 z m 3.76181,-3.390162 c 0.65606,-0.747215 1.29833,-2.198196 2.2283,-5.034078 0.96386,-2.939213 1.38863,-4.708203 1.41587,-5.896519 0.0278,-1.214638 -0.18758,-1.598501 -0.89712,-1.598501 -1.35343,0 -2.73076,2.692111 -4.19423,8.198005 -0.9623,3.620365 -0.86502,4.888718 0.37494,4.888718 0.48374,0 0.66574,-0.09465 1.07224,-0.557625 z"
     id="path859" />
  <path
     style="fill:#ffffff;stroke:#f2f2f2;stroke-width:0"
     d="m 154.11336,27.062472 c -1.3984,-0.213606 -3.0819,-0.815631 -4.01757,-1.436691 -2.98696,-1.98263 -3.71516,-6.057623 -1.81941,-10.181378 1.48519,-3.230675 4.67451,-5.8288038 8.43401,-6.8706133 3.42444,-0.9489623 8.10783,-0.5510512 10.33336,0.8779451 3.38182,2.1714492 4.04402,6.1901332 1.78241,10.8168622 -1.55481,3.180766 -4.47669,5.506846 -8.17985,6.511886 -1.39118,0.377568 -4.91224,0.529552 -6.53295,0.281989 z m 3.76482,-3.403264 c 0.66442,-0.756733 1.31345,-2.21405 2.22883,-5.004565 1.28718,-3.923939 1.69185,-6.070208 1.3147,-6.972846 -0.20511,-0.490892 -0.2874,-0.548259 -0.78652,-0.548259 -1.11938,0 -2.05314,1.466113 -3.2848,5.157523 -1.37219,4.112615 -1.86512,6.807414 -1.38051,7.547033 0.19683,0.300399 0.37507,0.382167 0.83305,0.382167 0.48438,0 0.66571,-0.09462 1.07525,-0.561053 z"
     id="path861" />
  <path
     style="fill:#ffffff;stroke:#f2f2f2;stroke-width:0"
     d="m 175.76823,26.880201 c -2.29411,-0.521529 -4.09954,-2.360263 -4.66231,-4.748327 -0.27057,-1.148128 -0.12251,-3.972705 0.29266,-5.58314 1.10391,-4.282074 4.02889,-7.6244609 7.37809,-8.4309875 1.90153,-0.4579121 4.56673,-0.077636 5.91577,0.8440761 0.31667,0.2163669 0.5965,0.3704543 0.62183,0.3424167 0.16829,-0.1862597 1.28435,-4.2313883 1.28435,-4.65506 0,-0.413625 -0.12712,-0.6485574 -0.60169,-1.1119575 -0.34293,-0.3348634 -0.60169,-0.7303772 -0.60169,-0.9196889 0,-0.7673254 1.65336,-1.5399752 4.16921,-1.94835735 3.08592,-0.50091746 4.94204,-0.0970305 5.86789,1.27683315 0.69633,1.0332819 0.61029,1.4412948 -2.36557,11.2182273 -1.48918,4.89257 -2.7076,8.995848 -2.7076,9.118397 0,0.6398 0.68535,0.747159 1.32637,0.207774 0.2458,-0.206831 0.48484,-0.376056 0.5312,-0.376056 0.0464,0 0.12885,0.237522 0.18331,0.527824 0.0759,0.404655 0.007,0.71676 -0.29711,1.33748 -1.03988,2.125431 -3.65674,3.357764 -6.28049,2.957611 -1.46179,-0.222939 -2.52611,-0.758637 -3.3276,-1.674869 l -0.65101,-0.744201 -0.3285,0.444318 c -1.09828,1.485506 -3.75245,2.371143 -5.74711,1.917687 z m 5.31479,-4.742982 c 0.3909,-0.343724 0.4987,-0.641573 2.02328,-5.590063 0.75166,-2.439731 1.40628,-4.538947 1.45471,-4.664924 0.11855,-0.308326 -0.64394,-0.748859 -1.29489,-0.748132 -1.05471,0.0012 -1.928,0.926597 -2.93871,3.114147 -1.04391,2.259405 -1.68701,6.015153 -1.25443,7.325901 0.30238,0.916211 1.29289,1.193681 2.01004,0.563071 z"
     id="path863" />
</svg>
