<?xml version="1.0" encoding="UTF-8" standalone="no"?>
<svg
   xmlns:dc="http://purl.org/dc/elements/1.1/"
   xmlns:cc="http://creativecommons.org/ns#"
   xmlns:rdf="http://www.w3.org/1999/02/22-rdf-syntax-ns#"
   xmlns:svg="http://www.w3.org/2000/svg"
   xmlns="http://www.w3.org/2000/svg"
   xmlns:sodipodi="http://sodipodi.sourceforge.net/DTD/sodipodi-0.dtd"
   xmlns:inkscape="http://www.inkscape.org/namespaces/inkscape"
   aria-hidden="true"
   focusable="false"
   data-prefix="fas"
   data-icon="utensils"
   class="svg-inline--fa fa-utensils fa-w-13"
   role="img"
   viewBox="0 0 416 512"
   version="1.1"
   id="svg4"
   sodipodi:docname="utensils-solid.svg"
   inkscape:version="1.0.2 (e86c870879, 2021-01-15)">
  <metadata
     id="metadata10">
    <rdf:RDF>
      <cc:Work
         rdf:about="">
        <dc:format>image/svg+xml</dc:format>
        <dc:type
           rdf:resource="http://purl.org/dc/dcmitype/StillImage" />
      </cc:Work>
    </rdf:RDF>
  </metadata>
  <defs
     id="defs8" />
  <sodipodi:namedview
     pagecolor="#ffffff"
     bordercolor="#666666"
     borderopacity="1"
     objecttolerance="10"
     gridtolerance="10"
     guidetolerance="10"
     inkscape:pageopacity="0"
     inkscape:pageshadow="2"
     inkscape:window-width="1920"
     inkscape:window-height="1017"
     id="namedview6"
     showgrid="false"
     inkscape:zoom="1.6601562"
     inkscape:cx="208"
     inkscape:cy="280.09412"
     inkscape:window-x="-8"
     inkscape:window-y="-8"
     inkscape:window-maximized="1"
     inkscape:current-layer="svg4" />
  <path
     fill="currentColor"
     d="M207.9 15.2c.8 4.7 16.1 94.5 16.1 128.8 0 52.3-27.8 89.6-68.9 104.6L168 486.7c.7 13.7-10.2 25.3-24 25.3H80c-13.7 0-24.7-11.5-24-25.3l12.9-238.1C27.7 233.6 0 196.2 0 144 0 109.6 15.3 19.9 16.1 15.2 19.3-5.1 61.4-5.4 64 16.3v141.2c1.3 3.4 15.1 3.2 16 0 1.4-25.3 7.9-139.2 8-141.8 3.3-20.8 44.7-20.8 47.9 0 .2 2.7 6.6 116.5 8 141.8.9 3.2 14.8 3.4 16 0V16.3c2.6-21.6 44.8-21.4 48-1.1zm119.2 285.7l-15 185.1c-1.2 14 9.9 26 23.9 26h56c13.3 0 24-10.7 24-24V24c0-13.2-10.7-24-24-24-82.5 0-221.4 178.5-64.9 300.9z"
     id="path2" />
  <path
     style="fill:#ffffff;stroke:#f2f2f2;stroke-width:0"
     d="m 76.570666,511.35013 c -7.084297,-1.03903 -14.534126,-6.46576 -17.654625,-12.86029 -3.106155,-6.36514 -3.27057,-0.5076 3.560205,-126.83808 3.484136,-64.4367 6.434593,-118.57485 6.556575,-120.30698 0.220516,-3.13138 0.209782,-3.1533 -1.883352,-3.84409 -3.735902,-1.23297 -10.508429,-4.51175 -15.88339,-7.68964 C 28.569995,226.39224 12.107061,204.593 4.8098537,178.29647 -1.0463976,157.19263 -1.0592941,139.27723 4.7487221,93.37459 8.2323064,65.842688 15.688195,17.190802 17.081864,12.897179 19.466069,5.5519075 28.631986,0.55514166 39.778705,0.5240791 48.242267,0.5004937 53.523013,2.2808948 58.475104,6.827561 c 5.370085,4.930441 4.932,-2.0783341 4.946962,79.144437 l 0.01325,71.816702 1.561371,1.02304 c 2.757807,1.80699 11.910994,1.82883 14.307021,0.0342 0.843806,-0.63208 1.493082,-10.0756 4.916152,-71.504724 2.169169,-38.927058 4.246184,-71.93977 4.615589,-73.361582 1.469121,-5.6545282 7.355302,-10.5842057 14.953671,-12.5236933 5.31211,-1.35591692 14.61667,-0.92541563 19.371,0.8962527 6.52128,2.4986955 11.34798,7.5178037 12.21955,12.7066706 0.19477,1.159529 2.11866,33.686588 4.27533,72.282352 2.15666,38.595764 4.03648,70.498734 4.17738,70.895494 0.76517,2.15468 11.92036,2.60628 14.97293,0.60616 l 1.60881,-1.05413 V 86.103239 c 0,-79.1765428 -0.28588,-73.543137 3.97121,-78.2552349 4.66069,-5.1588125 12.13598,-7.60300228 21.72304,-7.10275702 9.60803,0.50133932 17.18307,4.36989642 19.97578,10.20158192 2.5373,5.298353 12.68264,73.828896 16.48154,111.330821 0.4195,4.14117 0.75958,13.89929 0.75574,21.6847 -0.008,16.02925 -1.08337,24.19948 -4.79702,36.44236 -9.1969,30.31969 -29.5399,53.44266 -57.53367,65.39592 -5.84628,2.49634 -5.9978,2.61067 -5.9978,4.5259 0,1.08068 2.86333,54.50378 6.36294,118.71799 3.49962,64.21422 6.24833,118.55593 6.10823,120.75935 -0.69246,10.89109 -9.359,19.96447 -20.60293,21.57014 -5.06733,0.72363 -65.33344,0.70315 -70.290516,-0.0239 z"
     id="path835" />
  <path
     style="fill:#ffffff;stroke:#f2f2f2;stroke-width:0"
     d="m 332.57067,511.35013 c -6.63769,-0.97353 -13.5484,-5.66786 -16.99051,-11.54138 -0.86092,-1.46904 -1.99266,-4.40933 -2.51498,-6.53398 -0.9305,-3.78498 -0.79522,-5.76628 6.69796,-98.09854 l 7.64765,-94.23554 -2.07239,-1.83976 c -1.13982,-1.01186 -4.62026,-4.00822 -7.73432,-6.65858 -12.88338,-10.96496 -26.30697,-25.94071 -35.36491,-39.45411 -22.16874,-33.07324 -30.18352,-70.11879 -23.58769,-109.02589 5.10049,-30.0864 18.83889,-59.700492 40.23939,-86.738821 5.64464,-7.131685 22.75166,-24.344472 29.57972,-29.762592 23.2947,-18.4845476 49.48333,-28.9398251 66.97757,-26.73943329 6.48013,0.81505919 13.5682,5.62926599 17.05833,11.58599329 3.55007,6.059048 3.30527,-11.98929496 3.30527,243.692503 0,209.5971 -0.0977,234.43744 -0.93485,237.65227 -2.47079,9.48851 -10.16043,16.31361 -19.97978,17.73347 -4.90606,0.70941 -57.45148,0.67939 -62.32646,-0.0356 z"
     id="path837" />
</svg>
