<?xml version="1.0" encoding="UTF-8" standalone="no"?>
<svg
   xmlns:dc="http://purl.org/dc/elements/1.1/"
   xmlns:cc="http://creativecommons.org/ns#"
   xmlns:rdf="http://www.w3.org/1999/02/22-rdf-syntax-ns#"
   xmlns:svg="http://www.w3.org/2000/svg"
   xmlns="http://www.w3.org/2000/svg"
   xmlns:sodipodi="http://sodipodi.sourceforge.net/DTD/sodipodi-0.dtd"
   xmlns:inkscape="http://www.inkscape.org/namespaces/inkscape"
   aria-hidden="true"
   focusable="false"
   data-prefix="fas"
   data-icon="check-circle"
   class="svg-inline--fa fa-check-circle fa-w-16"
   role="img"
   viewBox="0 0 512 512"
   version="1.1"
   id="svg4"
   sodipodi:docname="check-circle-solid.svg"
   inkscape:version="1.0.2 (e86c870879, 2021-01-15)">
  <metadata
     id="metadata10">
    <rdf:RDF>
      <cc:Work
         rdf:about="">
        <dc:format>image/svg+xml</dc:format>
        <dc:type
           rdf:resource="http://purl.org/dc/dcmitype/StillImage" />
        <dc:title></dc:title>
      </cc:Work>
    </rdf:RDF>
  </metadata>
  <defs
     id="defs8" />
  <sodipodi:namedview
     pagecolor="#ffffff"
     bordercolor="#666666"
     borderopacity="1"
     objecttolerance="10"
     gridtolerance="10"
     guidetolerance="10"
     inkscape:pageopacity="0"
     inkscape:pageshadow="2"
     inkscape:window-width="1920"
     inkscape:window-height="1017"
     id="namedview6"
     showgrid="false"
     inkscape:zoom="1.6601562"
     inkscape:cx="204.8935"
     inkscape:cy="256"
     inkscape:window-x="-8"
     inkscape:window-y="-8"
     inkscape:window-maximized="1"
     inkscape:current-layer="svg4" />
  <path
     fill="currentColor"
     d="M504 256c0 136.967-111.033 248-248 248S8 392.967 8 256 119.033 8 256 8s248 111.033 248 248zM227.314 387.314l184-184c6.248-6.248 6.248-16.379 0-22.627l-22.627-22.627c-6.248-6.249-16.379-6.249-22.628 0L216 308.118l-70.059-70.059c-6.248-6.248-16.379-6.248-22.628 0l-22.627 22.627c-6.248 6.248-6.248 16.379 0 22.627l104 104c6.249 6.249 16.379 6.249 22.628.001z"
     id="path2"
     style="fill:#000000" />
  <path
     style="fill:#000000;stroke:#f2f2f2;stroke-width:0"
     d="M 239.13412,503.1895 C 202.31527,499.91022 173.24771,491.75836 143.04874,476.2428 74.418977,440.98237 26.330039,376.31699 12.411277,300.57412 9.3959431,284.16532 8.7536534,276.33798 8.7536534,256 c 0,-24.57124 1.7241426,-39.14955 7.2074486,-60.94187 5.385863,-21.40506 15.05443,-45.01496 26.255945,-64.11502 C 54.279795,110.37454 71.940813,88.625851 89.275814,72.992521 107.0746,56.94093 124.74613,44.847823 145.70076,34.379413 171.69328,21.394195 197.00752,13.845548 227.99059,9.8407701 241.00132,8.159042 272.63016,8.299265 285.88487,10.097438 c 30.50967,4.139035 54.73969,11.455546 80.41437,24.281975 11.47306,5.731655 17.64796,9.330138 28.24194,16.458243 54.96444,36.982572 93.0256,95.167394 105.04754,160.588224 3.01534,16.4088 3.65763,24.23614 3.65763,44.57412 0,20.33798 -0.64229,28.16532 -3.65763,44.57412 -8.38031,45.6038 -28.94701,87.07249 -60.58124,122.15007 -12.3901,13.73875 -28.17663,27.38908 -44.28603,38.29336 -33.22245,22.48792 -69.66703,36.04227 -110.41086,41.06362 -7.75231,0.95541 -38.44033,1.7083 -45.17647,1.10833 z M 223.47294,390.47588 c 3.6797,-1.80376 189.60886,-187.82102 191.3076,-191.39823 1.66754,-3.51155 1.57386,-11.18213 -0.17657,-14.45647 -0.70842,-1.32518 -7.47753,-8.5476 -15.04247,-16.04983 -12.7627,-12.65689 -13.99034,-13.71011 -17.02612,-14.60706 -4.1026,-1.21214 -6.19566,-1.21528 -10.32252,-0.0154 -3.19788,0.92975 -4.99735,2.67567 -79.77421,77.40055 l -76.50253,76.44932 -35.8363,-35.87855 c -20.43785,-20.46196 -36.87158,-36.43908 -38.2457,-37.18306 -3.22212,-1.74453 -11.00127,-1.85654 -14.1553,-0.20381 -2.9017,1.52051 -28.689254,27.22416 -30.299373,30.2008 -1.905815,3.52328 -1.85426,10.98433 0.101966,14.75764 0.972348,1.87555 17.484527,18.81985 53.598987,55.00171 28.70654,28.76011 53.41348,53.18576 54.90431,54.27921 1.49082,1.09346 3.52376,2.28892 4.51764,2.65659 2.92346,1.08147 9.83785,0.57245 12.95059,-0.95339 z"
     id="path835" />
  <path
     style="fill:#000000;stroke:#f2f2f2;stroke-width:0"
     d="m 210.7543,390.69839 c -1.1976,-0.42797 -2.95949,-1.34502 -3.91529,-2.03788 -0.95581,-0.69286 -25.76138,-25.33597 -55.12349,-54.76248 -50.67711,-50.78825 -53.438732,-53.66638 -54.431713,-56.72816 -1.247381,-3.84621 -1.017191,-8.35679 0.603899,-11.8334 1.516162,-3.25158 26.848974,-28.5888 30.112294,-30.11753 1.32518,-0.62079 3.94403,-1.24445 5.81967,-1.3859 6.94356,-0.52366 6.19345,-1.15234 46.34425,38.84191 l 36.12072,35.97989 76.32826,-76.2616 c 41.98055,-41.94388 77.27698,-76.7563 78.43651,-77.36094 3.19153,-1.66422 9.75385,-1.50619 13.25177,0.31911 1.66578,0.86926 7.64646,6.35307 15.51594,14.2269 14.8263,14.8345 16.18731,16.87008 15.66125,23.42364 -0.16426,2.0464 -0.76997,4.65718 -1.346,5.80174 -0.57604,1.14456 -43.37124,44.42286 -95.10044,96.174 -73.83228,73.86357 -94.63586,94.35443 -96.76369,95.30912 -3.13173,1.4051 -8.22438,1.58714 -11.51394,0.41158 z"
     id="path837" />
  <path
     style="fill:#ffffff;stroke:#f2f2f2;stroke-width:0"
     d="M 239.13412,503.1895 C 203.68974,500.03264 174.99063,492.2479 146.67294,478.10906 134.84669,472.2043 129.95538,469.37925 119.26588,462.27975 91.722824,443.98685 69.354779,421.857 50.980431,394.72145 43.566758,383.77282 39.65639,377.015 33.598325,364.68206 21.209061,339.46013 14.160022,315.86881 10.123435,286.11765 8.9501616,277.47018 8.7757324,273.55698 8.7809532,256 8.7875874,233.69026 9.5741854,225.04435 13.247281,206.90824 26.11227,143.38662 63.803048,86.939696 117.45882,50.837656 145.49921,31.970811 176.36819,19.107127 208.34572,12.96338 226.70959,9.4351832 234.22144,8.7749527 256,8.7749527 c 17.44321,0 21.50266,0.1799216 29.94391,1.3271653 30.64386,4.164784 54.80578,11.46746 80.58785,24.356809 69.74883,34.869836 119.09095,100.491163 133.06537,176.966953 3.01296,16.48861 3.64922,24.26032 3.64922,44.57412 0,20.3138 -0.63626,28.08551 -3.64922,44.57412 -10.73069,58.72429 -42.5888,111.82485 -89.51568,149.20323 -36.285,28.90187 -78.56973,46.48666 -125.77086,52.30382 -7.75231,0.95541 -38.44033,1.7083 -45.17647,1.10833 z M 223.17176,390.65199 c 3.403,-1.59357 189.3232,-187.47576 191.31229,-191.27317 1.14334,-2.18278 1.42183,-3.64891 1.43023,-7.52941 0.009,-4.1528 -0.21167,-5.19346 -1.59647,-7.52941 -0.88379,-1.49082 -7.66026,-8.71523 -15.05882,-16.05424 -12.89564,-12.79183 -13.59932,-13.38642 -17.01606,-14.37787 -4.04309,-1.1732 -8.0824,-0.9368 -11.64495,0.68151 -1.50608,0.68414 -27.66133,26.39363 -78.46279,77.12552 l -76.20364,76.09928 -35.53283,-35.57312 c -19.72724,-19.7496 -36.73856,-36.29288 -38.24343,-37.19121 -2.34204,-1.3981 -3.36578,-1.61696 -7.52941,-1.60969 -3.51585,0.006 -5.38887,0.30987 -6.92706,1.1233 -2.91237,1.54013 -28.02922,26.55443 -30.011997,29.88946 -1.390586,2.33897 -1.610101,3.37126 -1.601102,7.52941 0.0083,3.85574 0.287431,5.34179 1.396441,7.43548 0.90677,1.7119 19.856218,21.12133 54.803688,56.134 59.68243,59.79378 56.30932,56.83062 64.26003,56.45021 2.46815,-0.11809 5.21551,-0.66958 6.62588,-1.33005 z"
     id="path839" />
  <path
     style="fill:#ffffff;stroke:#f2f2f2;stroke-width:0"
     d="M 209.10997,389.44447 C 205.6908,387.64507 101.72983,283.62395 98.95248,279.22325 c -1.606038,-2.54477 -1.880157,-3.54893 -1.880157,-6.88747 0,-6.29763 1.066422,-7.82518 15.630867,-22.38962 14.40807,-14.40807 16.13604,-15.63087 22.08844,-15.63087 6.35874,0 5.49842,-0.75227 51.24772,44.81195 l 30.23761,30.11529 76.68147,-76.47715 c 47.58314,-47.45636 77.51548,-76.87291 78.8793,-77.52009 2.55107,-1.21056 6.87745,-1.34916 10.28121,-0.32937 4.42623,1.32613 28.7241,25.19946 31.81602,31.26012 1.32024,2.58789 1.52856,6.80214 0.51644,10.44755 -0.72692,2.6182 -8.5993,10.70315 -90.2682,92.70566 -59.58511,59.82851 -100.24784,99.69808 -102.74605,100.7419 -3.24604,1.35628 -9.12734,1.05729 -12.32718,-0.62668 z"
     id="path841" />
  <path
     style="fill:#99e2d0;stroke:#f2f2f2;stroke-width:0;fill-opacity:1"
     d="m 210.4637,389.70301 c -0.74627,-0.29995 -8.06486,-7.0203 -16.26353,-14.93414 -23.11645,-22.31333 -92.54008,-92.47853 -94.644172,-95.65513 -1.667056,-2.5168 -1.881322,-3.33128 -1.881322,-7.15139 0,-3.84423 0.210604,-4.63214 1.944726,-7.27555 2.647098,-4.03511 23.481518,-24.8251 27.655328,-27.59635 2.9562,-1.96281 3.81758,-2.23702 7.07621,-2.2526 6.63343,-0.0318 6.41837,-0.21878 52.28435,45.47592 l 29.62885,29.5182 71.59634,-71.33951 c 39.37799,-39.23674 74.65435,-74.14557 78.39192,-77.57519 l 6.79559,-6.23567 4.66958,0.21214 c 4.46892,0.20303 4.8226,0.32862 8.23041,2.92273 4.64418,3.53527 22.09004,20.97379 25.56039,25.54964 2.5741,3.3941 2.71271,3.78234 2.91136,8.1549 l 0.20858,4.59114 -2.56597,3.2462 c -7.71055,9.75458 -175.86383,177.89148 -188.07541,188.05709 -3.48155,2.89824 -3.51123,2.90912 -7.83059,2.87108 -2.38468,-0.021 -4.94637,-0.28358 -5.69264,-0.58351 z"
     id="path843" />
</svg>
