<?xml version="1.0" encoding="UTF-8" standalone="no"?>
<svg
   xmlns:dc="http://purl.org/dc/elements/1.1/"
   xmlns:cc="http://creativecommons.org/ns#"
   xmlns:rdf="http://www.w3.org/1999/02/22-rdf-syntax-ns#"
   xmlns:svg="http://www.w3.org/2000/svg"
   xmlns="http://www.w3.org/2000/svg"
   xmlns:sodipodi="http://sodipodi.sourceforge.net/DTD/sodipodi-0.dtd"
   xmlns:inkscape="http://www.inkscape.org/namespaces/inkscape"
   aria-hidden="true"
   focusable="false"
   data-prefix="fas"
   data-icon="store"
   class="svg-inline--fa fa-store fa-w-20"
   role="img"
   viewBox="0 0 616 512"
   version="1.1"
   id="svg4"
   sodipodi:docname="store-solid.svg"
   inkscape:version="1.0.2 (e86c870879, 2021-01-15)">
  <metadata
     id="metadata10">
    <rdf:RDF>
      <cc:Work
         rdf:about="">
        <dc:format>image/svg+xml</dc:format>
        <dc:type
           rdf:resource="http://purl.org/dc/dcmitype/StillImage" />
      </cc:Work>
    </rdf:RDF>
  </metadata>
  <defs
     id="defs8" />
  <sodipodi:namedview
     pagecolor="#ffffff"
     bordercolor="#666666"
     borderopacity="1"
     objecttolerance="10"
     gridtolerance="10"
     guidetolerance="10"
     inkscape:pageopacity="0"
     inkscape:pageshadow="2"
     inkscape:window-width="1920"
     inkscape:window-height="1017"
     id="namedview6"
     showgrid="false"
     inkscape:zoom="1.6601562"
     inkscape:cx="308"
     inkscape:cy="256"
     inkscape:window-x="-8"
     inkscape:window-y="-8"
     inkscape:window-maximized="1"
     inkscape:current-layer="svg4"
     inkscape:document-rotation="0" />
  <path
     fill="currentColor"
     d="M602 118.6L537.1 15C531.3 5.7 521 0 510 0H106C95 0 84.7 5.7 78.9 15L14 118.6c-33.5 53.5-3.8 127.9 58.8 136.4 4.5.6 9.1.9 13.7.9 29.6 0 55.8-13 73.8-33.1 18 20.1 44.3 33.1 73.8 33.1 29.6 0 55.8-13 73.8-33.1 18 20.1 44.3 33.1 73.8 33.1 29.6 0 55.8-13 73.8-33.1 18.1 20.1 44.3 33.1 73.8 33.1 4.7 0 9.2-.3 13.7-.9 62.8-8.4 92.6-82.8 59-136.4zM529.5 288c-10 0-19.9-1.5-29.5-3.8V384H116v-99.8c-9.6 2.2-19.5 3.8-29.5 3.8-6 0-12.1-.4-18-1.2-5.6-.8-11.1-2.1-16.4-3.6V480c0 17.7 14.3 32 32 32h448c17.7 0 32-14.3 32-32V283.2c-5.4 1.6-10.8 2.9-16.4 3.6-6.1.8-12.1 1.2-18.2 1.2z"
     id="path2" />
  <path
     style="fill:#b3b3b3;stroke:#f2f2f2;stroke-width:0"
     d="M 70.070588,254.22166 C 52.510848,251.01976 38.097175,243.31206 25.619617,230.45152 16.081727,220.62088 9.5541242,209.6767 5.0831896,196.02014 1.6750086,185.60978 0.59020408,178.62882 0.59737257,167.15294 0.60687685,151.93781 3.3021095,140.33432 9.971562,126.79529 11.277151,124.14494 27.696624,97.445647 46.459281,67.463529 83.512751,8.253287 83.564987,8.1797487 91.454118,4.122622 99.495529,-0.01281892 81.70268,0.30117647 308,0.30117647 c 226.08979,0 208.36788,-0.30790647 216.50762,3.76167673 7.77433,3.8868871 7.9107,4.078863 45.07632,63.4574538 19.90172,31.796501 35.39214,57.185473 37.11855,60.837643 8.91783,18.86558 11.16804,38.67775 6.69798,58.97381 -3.68399,16.72712 -11.36983,31.11082 -23.0654,43.16593 -12.01363,12.38293 -26.12481,20.08748 -43.09119,23.5273 -8.24657,1.67194 -28.40322,1.51444 -36.95208,-0.28874 -18.41608,-3.88445 -35.05285,-12.64032 -49.32272,-25.95839 l -5.75092,-5.36734 -1.90785,2.27247 c -2.72306,3.24348 -12.26098,11.11932 -17.91266,14.7912 -10.38403,6.74648 -21.75951,11.41707 -34.6353,14.2207 -5.50755,1.19924 -7.99792,1.37546 -19.27529,1.36393 -11.0714,-0.0113 -13.83754,-0.20603 -19.06312,-1.34194 -19.57582,-4.25528 -38.00238,-14.35961 -51.6022,-28.29644 l -2.90062,-2.97249 -4.82786,4.72515 c -18.57656,18.18137 -43.02698,28.22455 -68.71346,28.22455 -26.24034,0 -49.50761,-9.42705 -68.96284,-27.94122 l -5.48419,-5.21891 -1.27633,1.67183 c -0.70198,0.91951 -3.64097,3.79228 -6.53109,6.38396 -12.98867,11.64739 -28.5782,19.49604 -46.34251,23.33141 -8.722756,1.88328 -26.983796,2.18851 -35.712252,0.59694 z"
     id="path835" />
  <path
     style="fill:#b3b3b3;stroke:#f2f2f2;stroke-width:0"
     d="M 80.611765,511.42124 C 67.701379,509.91477 56.843376,500.47336 53.477426,487.827 52.7478,485.08568 52.615562,469.28323 52.609502,384.11 c -0.0068,-95.4165 0.046,-100.46731 1.046969,-100.17291 15.41603,4.53413 35.839478,5.50707 52.555289,2.50363 2.816,-0.50597 6.13648,-1.09135 7.37883,-1.30085 l 2.25882,-0.3809 v 49.7711 49.77111 H 308 500.15059 v -49.69412 c 0,-39.3547 0.15666,-49.69374 0.75294,-49.6923 0.41412,10e-4 3.48329,0.53196 6.82039,1.17989 9.85,1.91249 20.38402,2.53065 30.76086,1.80511 7.70537,-0.53875 18.98278,-2.37094 24.15993,-3.92516 L 564,283.56773 563.9881,381.9721 c -0.007,60.89595 -0.23684,100.01154 -0.60199,102.62084 -0.39183,2.79992 -1.40317,5.87332 -3.01034,9.1482 -3.99638,8.14332 -10.58824,13.7327 -19.8675,16.84611 -3.1955,1.07217 -11.34217,1.11413 -229.79765,1.18364 -124.56659,0.0396 -228.111061,-0.11771 -230.098825,-0.34965 z"
     id="path837" />
  <path
     style="fill:#808080;stroke:#f2f2f2;stroke-width:0"
     d="m 227.58588,254.72667 c -20.65981,-1.15305 -40.01166,-8.99308 -56.62118,-22.93899 -2.98165,-2.5035 -6.49266,-5.66952 -7.80225,-7.03563 -1.30958,-1.3661 -2.58582,-2.48382 -2.83608,-2.48382 -0.25025,0 -2.567,2.05628 -5.14834,4.56951 -13.92876,13.56129 -30.55193,22.29806 -51.07451,26.84365 -2.43494,0.53931 -8.232535,0.80249 -17.769409,0.80661 -11.734059,0.005 -14.979548,-0.18686 -18.974118,-1.12211 C 56.402656,250.80047 46.057308,246.26518 37.543521,240.29465 31.11721,235.78803 21.043332,225.43095 16.572028,218.73358 7.1194624,204.57502 1.8320053,188.68569 1.0112057,171.97176 0.13700124,154.17035 4.3418046,136.76523 13.016517,122.27764 23.338183,105.03949 64.946895,38.462763 74.701037,23.578272 82.961013,10.973828 86.472393,7.1176201 92.524944,4.003985 L 96.98994,1.7070431 114.40085,1.1238918 c 25.59089,-0.85712704 397.49448,-0.30227273 402.53299,0.6005513 4.82853,0.8651974 10.22501,3.7167997 13.75845,7.2702197 3.63493,3.6554982 13.60867,18.7929452 36.14258,54.8547432 35.67218,57.087384 40.15459,64.738304 43.44892,74.161394 3.6917,10.55983 4.61131,16.46472 4.58565,29.44331 -0.0193,9.78413 -0.24414,12.76238 -1.34572,17.8321 -4.01408,18.47372 -11.84519,33.09638 -24.49696,45.742 -11.67651,11.6708 -24.04458,18.51151 -40.38675,22.33768 -3.97368,0.93035 -7.24862,1.12823 -18.67294,1.12823 -8.70579,0 -15.35895,-0.28529 -17.90362,-0.76772 -18.70007,-3.54523 -36.67215,-12.94295 -51.59036,-26.97694 -2.61997,-2.46467 -4.93732,-4.48123 -5.14968,-4.48123 -0.21235,0 -1.22562,0.95617 -2.25171,2.12482 -2.92538,3.33183 -12.32302,10.99667 -18.27508,14.90541 -9.38024,6.16003 -21.84902,11.38103 -33.43191,13.99881 -6.84644,1.54732 -28.00858,1.92992 -35.53883,0.64251 -19.25861,-3.29252 -38.15281,-12.95064 -52.74913,-26.96369 l -5.06203,-4.85975 -3.90964,3.65727 c -23.07915,21.58942 -46.90802,30.6057 -76.5192,28.95306 z"
     id="path832" />
  <path
     style="fill:#808080;stroke:#f2f2f2;stroke-width:0"
     d="m 77.078401,510.44205 c -1.943346,-0.47039 -5.196052,-1.72809 -7.228235,-2.79491 -4.457441,-2.33998 -10.935857,-8.66547 -13.170174,-12.85928 -3.668733,-6.88621 -3.475294,-0.76484 -3.475294,-109.97533 0,-54.90567 0.225096,-99.96761 0.500214,-100.13764 0.275117,-0.17003 1.969235,0.0821 3.764706,0.56023 12.709387,3.3847 34.640045,3.98943 49.796262,1.37311 l 8.58353,-1.48172 v 49.58733 49.58734 h 192.06103 192.06104 l 0.44229,-49.24235 c 0.24326,-27.0833 0.55633,-49.35701 0.69571,-49.49714 0.13938,-0.14013 2.89453,0.20199 6.12256,0.76027 17.89065,3.09412 36.8999,2.60563 52.60821,-1.35191 l 3.972,-1.0007 -0.24519,99.40827 c -0.1575,63.85664 -0.4643,100.54875 -0.85788,102.59723 -1.73289,9.01943 -8.95565,18.05727 -17.7919,22.26305 -4.55476,2.16793 -4.99846,2.25548 -13.44433,2.65288 -4.80377,0.22603 -108.21271,0.40996 -229.79766,0.40874 -188.88735,-0.002 -221.577818,-0.12671 -224.596889,-0.85747 z"
     id="path834" />
</svg>
